<svg width="550" height="137" viewBox="0 0 550 137" fill="none" xmlns="http://www.w3.org/2000/svg">
<path d="M548.77 110.9L545.99 117.96H272.57C271.36 117.96 270.52 116.74 270.96 115.61L272.39 111.91L275.9 102.84L277 100.02C277.76 98.07 279.63 96.79 281.72 96.79H300.13C301.79 96.79 303.3 95.76 303.9 94.21L304.46 92.76L305.62 89.74H298.53C297.93 89.74 297.39 90.1 297.18 90.67L296.37 92.77H279.8L280.98 89.75L281.92 87.3C282.76 85.13 284.85 83.7 287.18 83.7H320C321.89 83.7 323.18 85.57 322.5 87.32L321.56 89.75L320.39 92.77L318.83 96.8L316.49 102.85L313.38 110.91H548.77V110.9ZM299.42 105.75C299.96 104.34 298.93 102.83 297.41 102.83H292.47L288.95 111.9H297.03L299.42 105.75Z" fill="#EC1C24"/>
<path d="M358.95 130.51C358.82 131.23 359.17 131.33 360.09 131.33C360.24 131.33 360.38 131.32 360.52 131.3L361.21 131.91L360.49 132.7C360 133.04 359.71 133.14 358.49 133.14C356.87 133.14 356.32 132.39 356.54 131.13C356.56 131.04 356.72 130.38 356.91 129.95L359 124.88C359.04 124.79 359.08 124.66 359.09 124.56C359.14 124.33 359.05 124.22 358.78 124.15L358.89 123.89H360.64C360.99 123.89 361.18 123.98 361.25 124.16C361.29 124.25 361.3 124.38 361.27 124.52C361.25 124.65 361.18 124.84 361.11 125.02L359.2 129.65C359.07 130 358.98 130.29 358.95 130.51Z" fill="white"/>
<path d="M358.95 134.32C360.01 134.32 360.67 133.86 361.16 132.67L361.52 131.7H361.4L361.21 131.91L360.52 131.3C361.46 131.15 362.01 130.5 362.4 129.59L364.34 124.89C364.37 124.8 364.41 124.67 364.43 124.57C364.47 124.34 364.39 124.23 364.12 124.16L364.23 123.9H365.98C366.53 123.9 366.69 124.13 366.62 124.54C366.6 124.67 366.53 124.86 366.46 125.04L363.16 133.08C362.43 134.84 361.24 136.13 359.02 136.13H356.68C355.69 136.13 355.08 135.86 355.22 135.07C355.25 134.91 355.33 134.67 355.39 134.52L355.72 133.72H355.94C356.1 134.21 356.45 134.32 357.28 134.32H358.95Z" fill="white"/>
<path d="M353.01 94.27L352.96 94.54L352.7 95.33L351.73 98.15H340.77L341.86 94.93L342.09 94.27H353.01Z" fill="#EC1C24"/>
<path d="M353.98 125.59H352.83C351.46 125.59 350.36 126.52 349.55 128.49C349.21 129.33 349.03 129.81 348.94 130.36C348.8 131.13 349.14 131.34 349.93 131.34C351.16 131.34 351.77 130.86 352.37 129.43L353.98 125.59ZM346.45 130.88C346.56 130.28 346.79 129.45 347.2 128.49C348.58 125.14 350.7 123.88 353.14 123.88H355.98C356.48 123.88 356.65 124.12 356.58 124.52C356.57 124.56 356.52 124.72 356.46 124.88L353.03 133.14C352.3 134.9 350.93 136.12 348.71 136.12H346.6C345.61 136.12 345 135.85 345.14 135.06C345.17 134.9 345.25 134.66 345.31 134.51L345.64 133.71H345.86C346.02 134.2 346.37 134.31 347.19 134.31H348.48C350.03 134.31 350.74 133.56 351.11 132.57L351.38 131.83H351.22L350.33 132.73C349.83 133.01 349.29 133.13 348.34 133.13C346.82 133.13 346.17 132.48 346.45 130.88Z" fill="white"/>
<path d="M342.9 125.52C341.65 125.52 340.93 126 339.88 128.56C339.57 129.35 339.35 129.99 339.25 130.47C339.09 131.44 339.41 131.83 340.34 131.83C341.55 131.83 342.3 131.28 343.41 128.65C343.71 127.93 343.9 127.35 343.99 126.89C344.16 125.93 343.81 125.52 342.9 125.52ZM345.66 128.79C344.02 132.69 342.65 133.62 339.71 133.62C337.62 133.62 336.57 132.74 336.97 130.56C337.07 129.98 337.28 129.28 337.61 128.49C339.08 124.88 340.47 123.72 343.56 123.72C345.83 123.72 346.59 124.93 346.25 126.89C346.15 127.46 345.94 128.1 345.66 128.79Z" fill="white"/>
<path d="M331.47 132.78C331.43 133.03 331.55 133.13 331.84 133.2L331.74 133.49H330.01C329.4 133.49 329.23 133.24 329.31 132.75C329.32 132.7 329.41 132.42 329.5 132.21L332.53 124.85C332.56 124.76 332.6 124.64 332.61 124.56C332.66 124.28 332.52 124.19 332.3 124.14L332.41 123.88H338.89L338.41 125.02C338.23 125.46 337.98 125.68 337.49 125.68H335.32C334.69 125.68 334.26 125.93 333.92 126.75L331.57 132.45C331.52 132.6 331.48 132.74 331.47 132.78Z" fill="white"/>
<path d="M319.37 132.34C319.34 132.41 319.3 132.53 319.28 132.66C319.22 132.97 319.36 133.1 319.63 133.15L319.5 133.49H317.39C316.93 133.49 316.74 133.19 316.83 132.73C316.86 132.58 316.9 132.45 316.93 132.38L320.47 123.78C320.56 123.57 320.62 123.41 320.63 123.37C320.66 123.23 320.6 123.14 320.4 123.14H320.32C319.86 123.14 319.66 123.02 319.72 122.72C319.75 122.56 319.81 122.38 320.31 121.19H323.12C323.59 121.19 323.68 121.58 323.61 121.94C323.61 121.96 323.56 122.12 323.53 122.21L319.37 132.34Z" fill="white"/>
<path d="M311.95 126.02C312.23 125.35 312.43 124.81 312.5 124.4C312.66 123.47 312.27 123.06 311.13 123.06C309.6 123.06 309.03 123.63 308.53 124.96C308.37 125.38 308.24 125.81 308.2 126.01C308.05 126.87 308.52 127.04 309.77 127.04H311.51L311.95 126.02ZM306.21 124.75C307.46 121.61 308.97 121.1 311.73 121.1C314.34 121.1 315.35 121.98 315.03 123.8C314.93 124.32 314.74 125.02 314.45 125.77L313.27 128.69C311.65 132.71 310.5 133.5 307.96 133.5H304.89C304.16 133.5 303.82 133.32 303.92 132.73C303.94 132.59 303.99 132.41 304.08 132.22L304.64 130.83H304.96C304.94 131.27 305.1 131.45 305.63 131.45H308C309.23 131.45 309.92 130.93 310.47 129.63L310.74 128.99H308.43C306.41 128.99 305.44 128.16 305.78 126.23C305.85 125.75 305.98 125.31 306.21 124.75Z" fill="white"/>
<path d="M301.74 126.02C302.01 125.35 302.22 124.81 302.29 124.4C302.45 123.47 302.06 123.06 300.92 123.06C299.38 123.06 298.81 123.63 298.32 124.96C298.15 125.38 298.03 125.81 297.99 126.01C297.84 126.87 298.31 127.04 299.55 127.04H301.3L301.74 126.02ZM293.86 132.22L294.42 130.83H294.74C294.72 131.27 294.88 131.45 295.4 131.45H297.78C299.01 131.45 299.7 130.93 300.24 129.63L300.51 128.99H298.21C296.19 128.99 295.22 128.16 295.56 126.23C295.64 125.75 295.77 125.3 295.99 124.75C297.24 121.61 298.74 121.1 301.51 121.1C304.11 121.1 305.12 121.98 304.8 123.8C304.71 124.32 304.52 125.02 304.23 125.77L303.05 128.69C301.43 132.71 300.27 133.5 297.74 133.5H294.67C293.93 133.5 293.59 133.32 293.7 132.73C293.72 132.59 293.77 132.41 293.86 132.22Z" fill="white"/>
<path d="M286.19 132.74C286.22 132.59 286.26 132.46 286.29 132.39L289.83 123.79C289.92 123.58 289.99 123.42 289.99 123.38C290.02 123.24 289.96 123.15 289.77 123.15H289.68C289.22 123.15 289.02 123.03 289.08 122.73C289.11 122.57 289.18 122.39 289.67 121.2H292.49C292.95 121.2 293.04 121.59 292.98 121.95C292.97 121.97 292.93 122.13 292.89 122.22L288.73 132.35C288.7 132.42 288.66 132.54 288.64 132.67C288.58 132.98 288.72 133.11 288.99 133.16L288.86 133.5H286.75C286.29 133.5 286.12 133.2 286.19 132.74Z" fill="white"/>
<path d="M274.76 83.68L272.41 89.73L263.83 111.91L261.5 117.96H245.05L247.39 111.91L255.45 91.09C255.7 90.43 255.22 89.73 254.51 89.73H248.99C247.72 89.73 246.58 90.51 246.12 91.7L238.29 111.91L237 115.27C236.38 116.89 234.81 117.96 233.08 117.96H213.33L215.68 111.91H216.06C219.48 111.91 222.55 109.81 223.78 106.63L230.31 89.73L230.83 88.38C231.93 85.55 234.66 83.68 237.7 83.68H274.76Z" fill="#EC1C24"/>
<path d="M272.4 123.88H276.51C278.2 123.88 278.97 124.79 278.77 125.94C278.74 126.1 278.69 126.28 278.63 126.44C278.29 127.28 277.79 127.97 276.83 128.15C277.6 128.5 277.89 129.02 277.74 129.89C277.7 130.1 277.6 130.52 277.44 130.89C276.71 132.66 275.72 133.49 273.48 133.49H270C269.4 133.49 269.22 133.24 269.3 132.75C269.31 132.7 269.4 132.42 269.49 132.21L272.52 124.85C272.55 124.76 272.59 124.64 272.6 124.56C272.65 124.28 272.51 124.19 272.29 124.14L272.4 123.88ZM275.47 130.06C275.56 129.56 275.36 129.13 274.38 129.13H272.94L271.84 131.78H273.29C274.57 131.79 275.27 131.2 275.47 130.06ZM275.03 127.53C275.92 127.53 276.44 126.98 276.57 126.27C276.64 125.84 276.4 125.58 275.77 125.58H274.38L273.59 127.53H275.03Z" fill="white"/>
<path d="M259 133.21C258.62 133.46 258.34 133.62 257.15 133.62C255.96 133.62 254.82 133.16 255.11 131.5C255.16 131.23 255.29 130.76 255.47 130.32C256.44 128.02 257.52 127.16 259.8 127.16H261.4C261.88 127.16 262.14 127.02 262.41 126.4C262.48 126.22 262.54 126.08 262.56 125.97C262.61 125.69 262.47 125.58 262.04 125.58H259.45C259.01 125.58 258.77 125.46 258.85 125.11C258.86 125.02 258.9 124.89 259.33 123.88H263.36C264.63 123.88 265.08 124.42 264.9 125.44C264.86 125.67 264.78 125.93 264.66 126.23L262.1 132.44C262.03 132.6 261.99 132.74 261.98 132.78C261.94 133.03 262.06 133.13 262.35 133.2L262.25 133.49H260.52C259.94 133.49 259.74 133.24 259.82 132.8C259.84 132.68 259.92 132.43 260.01 132.21H259.85L259 133.21ZM258.73 131.83C259.45 131.83 259.99 131.56 260.4 131.3L261.39 128.89H259.82C258.75 128.89 258.19 129.35 257.78 130.35C257.66 130.61 257.58 130.88 257.55 131.05C257.45 131.61 257.77 131.83 258.73 131.83Z" fill="white"/>
<path d="M245.3 132.22L248.33 124.86C248.36 124.77 248.4 124.65 248.42 124.57C248.47 124.29 248.32 124.2 248.1 124.15L248.22 123.89H249.97C250.53 123.89 250.68 124.13 250.6 124.55C250.59 124.64 250.51 124.9 250.45 125.03L249.39 127.59H252.45L253.58 124.87C253.61 124.78 253.64 124.71 253.67 124.57C253.71 124.34 253.62 124.23 253.35 124.16L253.47 123.9H255.21C255.76 123.9 255.93 124.13 255.86 124.52C255.84 124.62 255.76 124.9 255.7 125.03L252.64 132.45C252.57 132.61 252.53 132.75 252.52 132.81C252.48 133.02 252.6 133.14 252.89 133.21L252.79 133.5H251.06C250.48 133.5 250.28 133.25 250.36 132.81C250.38 132.71 250.46 132.44 250.55 132.22L251.76 129.3H248.7L247.39 132.45C247.33 132.61 247.28 132.75 247.28 132.79C247.23 133.04 247.36 133.14 247.65 133.21L247.54 133.5H245.81C245.21 133.5 245.03 133.25 245.12 132.76C245.13 132.71 245.21 132.43 245.3 132.22Z" fill="white"/>
<path d="M236.19 130.33C237.16 128.03 238.24 127.17 240.51 127.17H242.12C242.6 127.17 242.86 127.03 243.13 126.41C243.2 126.23 243.26 126.09 243.28 125.98C243.33 125.7 243.19 125.59 242.76 125.59H240.17C239.73 125.59 239.49 125.47 239.56 125.12C239.58 125.03 239.62 124.9 240.05 123.89H244.08C245.35 123.89 245.8 124.43 245.62 125.45C245.58 125.68 245.5 125.94 245.38 126.24L242.82 132.45C242.75 132.61 242.71 132.75 242.7 132.79C242.66 133.04 242.78 133.14 243.07 133.21L242.97 133.5H241.24C240.65 133.5 240.46 133.25 240.53 132.81C240.56 132.69 240.64 132.44 240.73 132.22H240.57L239.71 133.21C239.33 133.46 239.04 133.62 237.86 133.62C236.68 133.62 235.53 133.16 235.82 131.5C235.86 131.23 236.01 130.77 236.19 130.33ZM238.26 131.04C238.16 131.6 238.47 131.83 239.44 131.83C240.16 131.83 240.7 131.56 241.1 131.3L242.1 128.89H240.53C239.46 128.89 238.9 129.35 238.49 130.35C238.37 130.61 238.29 130.88 238.26 131.04Z" fill="white"/>
<path d="M233.01 125.59H231.62L230.82 127.54H232.25C233.15 127.54 233.67 126.99 233.79 126.28C233.88 125.84 233.64 125.59 233.01 125.59ZM229.63 123.88H233.73C235.43 123.88 236.2 124.79 235.99 125.94C235.97 126.1 235.92 126.28 235.85 126.44C235.51 127.28 235.01 127.97 234.06 128.15C234.82 128.5 235.12 129.02 234.97 129.89C234.93 130.1 234.82 130.52 234.67 130.89C233.94 132.66 232.94 133.49 230.71 133.49H227.22C226.62 133.49 226.44 133.24 226.53 132.75C226.54 132.7 226.62 132.42 226.71 132.21L229.74 124.85C229.77 124.76 229.81 124.64 229.83 124.56C229.88 124.28 229.73 124.19 229.51 124.14L229.63 123.88ZM232.7 130.06C232.79 129.56 232.6 129.13 231.61 129.13H230.17L229.07 131.78H230.52C231.8 131.79 232.5 131.2 232.7 130.06Z" fill="white"/>
<path d="M224.58 126.89C224.75 125.93 224.4 125.52 223.48 125.52C222.23 125.52 221.52 126 220.46 128.56C220.15 129.35 219.93 129.99 219.85 130.47C219.68 131.44 220 131.83 220.93 131.83C222.14 131.83 222.89 131.28 224.01 128.65C224.31 127.94 224.5 127.35 224.58 126.89ZM217.56 130.56C217.66 129.98 217.88 129.28 218.2 128.49C219.68 124.88 221.06 123.72 224.15 123.72C226.42 123.72 227.18 124.93 226.84 126.89C226.74 127.46 226.54 128.1 226.26 128.8C224.63 132.7 223.25 133.63 220.31 133.63C218.21 133.62 217.17 132.74 217.56 130.56Z" fill="white"/>
<path d="M212.49 125.02L211.43 127.58H214.49L215.62 124.86C215.65 124.77 215.68 124.7 215.71 124.56C215.75 124.33 215.66 124.22 215.39 124.15L215.51 123.89H217.25C217.8 123.89 217.97 124.12 217.9 124.51C217.88 124.61 217.79 124.89 217.74 125.02L214.68 132.44C214.61 132.6 214.57 132.74 214.56 132.8C214.52 133.01 214.64 133.13 214.93 133.2L214.83 133.49H213.1C212.52 133.49 212.32 133.24 212.4 132.8C212.41 132.7 212.5 132.43 212.59 132.21L213.8 129.29H210.74L209.43 132.44C209.37 132.6 209.32 132.74 209.32 132.78C209.27 133.03 209.4 133.13 209.68 133.2L209.58 133.49H207.85C207.25 133.49 207.07 133.24 207.16 132.75C207.17 132.7 207.25 132.42 207.34 132.21L207.39 132.08L210.37 124.85C210.4 124.76 210.44 124.64 210.46 124.56C210.51 124.28 210.36 124.19 210.14 124.14L210.26 123.88H212.01C212.57 123.88 212.72 124.12 212.63 124.54C212.63 124.63 212.55 124.89 212.49 125.02Z" fill="white"/>
<path d="M203.73 131.83C204.59 131.83 204.93 131.79 205.38 131.37H205.63L205.23 132.33C204.83 133.31 204.25 133.63 202.63 133.63H201.48C199.65 133.63 198.57 132.84 198.94 130.73C199.04 130.18 199.24 129.55 199.53 128.8C201.2 124.69 203.18 123.89 204.54 123.89H207.97L207.51 125.01C207.35 125.43 207.1 125.59 206.62 125.59H204.92C203.71 125.59 202.92 126.21 201.92 128.65C201.58 129.51 201.36 130.11 201.26 130.63C201.11 131.53 201.53 131.83 202.61 131.83H203.73Z" fill="white"/>
<path d="M196.53 126.89C196.7 125.93 196.35 125.52 195.43 125.52C194.18 125.52 193.47 126 192.42 128.56C192.1 129.35 191.88 129.99 191.79 130.47C191.62 131.44 191.94 131.83 192.87 131.83C194.09 131.83 194.83 131.28 195.94 128.65C196.26 127.94 196.45 127.35 196.53 126.89ZM198.19 128.79C196.56 132.69 195.18 133.62 192.25 133.62C190.15 133.62 189.11 132.74 189.5 130.56C189.61 129.98 189.82 129.28 190.14 128.49C191.62 124.88 193 123.72 196.09 123.72C198.36 123.72 199.13 124.93 198.78 126.89C198.68 127.46 198.48 128.1 198.19 128.79Z" fill="white"/>
<path d="M169.13 83.68C170.83 83.68 172 85.38 171.4 86.97L170.33 89.73L167.59 96.79L165.25 102.85C164.79 104.06 163.62 104.86 162.33 104.86H139.22L138.17 107.56C137.17 110.14 139.08 112.92 141.85 112.92C143.48 112.92 144.95 111.92 145.54 110.4L145.91 109.45H162.69L161.35 112.92L159.97 116.5C159.63 117.38 158.78 117.96 157.83 117.96H121.17C119.13 117.96 117.74 115.92 118.47 114.04L118.9 112.92L120.46 108.89L122.02 104.86L125.13 96.8L127.87 89.74L128.9 87.06C129.69 85.03 131.64 83.69 133.82 83.69H169.13V83.68ZM152.36 92.77C152.92 91.3 151.84 89.73 150.26 89.73H145.06L142.32 96.79H150.81L152.36 92.77Z" fill="#EC1C24"/>
<path d="M119.08 72.09C122.78 72.09 125.33 75.79 124 79.24L123.65 80.16L122.47 83.18L109.21 117.45H93.27L105.93 84.72C106.21 83.97 105.66 83.18 104.86 83.18H100.41C98.99 83.18 97.71 84.05 97.2 85.37L84.77 117.46H66.2L78.97 84.43C79.2 83.84 78.76 83.19 78.12 83.19H74.89C73.47 83.19 72.2 84.06 71.68 85.38L59.26 117.47H43.32L56.59 83.2L57.75 80.18H54.96L57.31 74.11C57.77 72.91 58.93 72.11 60.23 72.11H77.74C79.53 72.11 81.15 73.22 81.77 74.9L81.84 75.09C82.07 75.69 82.78 75.97 83.35 75.65L86.08 74.19C86.54 73.94 87.03 73.71 87.51 73.49C88.89 72.9 90.37 72.6 91.87 72.6H95.59C96.51 72.6 97.42 72.87 98.1 73.49C98.21 73.59 98.31 73.69 98.4 73.8C98.59 74.01 98.71 74.27 98.81 74.55C99.14 75.44 100.18 75.83 101.03 75.39L104.76 73.38C106.33 72.54 108.09 72.1 109.87 72.1H119.08V72.09Z" fill="#EC1C24"/>
<path d="M136.87 17.63C137.577 17.63 138.15 17.0569 138.15 16.35C138.15 15.6431 137.577 15.07 136.87 15.07C136.163 15.07 135.59 15.6431 135.59 16.35C135.59 17.0569 136.163 17.63 136.87 17.63Z" fill="white"/>
<path d="M143.62 25.96H142.71C142.65 25.96 142.59 25.94 142.53 25.93C141.98 25.52 141.36 25.13 140.83 24.91V21.97H141.05C142.68 21.97 143.68 21.64 144.09 20.95C144.54 20.21 144.14 19.42 143.97 19.07L141.49 12.9L144.82 12.93C145.63 12.93 146.32 12.32 146.35 11.51C146.37 10.69 145.71 10.02 144.9 10.01L142.73 9.99C142.57 2.88 138.56 0.800001 133.64 0.790001C128.75 0.790001 124.77 2.83 124.52 9.81L122.19 9.78C121.37 9.78 120.68 10.39 120.66 11.2C120.63 12.03 121.29 12.7 122.11 12.71L125.4 12.74V24C124.68 24 123.4 24.84 122.52 25.57H112.64C112.64 25.45 112.55 19.65 112.39 19.49C112.01 19.12 110.6 19.11 109.48 19.64C108.05 20.32 106.45 22.04 106.87 26.4C106.49 26.4 105.95 26.4 105.46 26.4C102.38 26.29 100.24 28.02 99.76 31.05C99.3 33.95 100.63 37.59 103.34 38.37C104.39 38.66 107.03 38.78 109.34 38.78C110.24 38.78 120.38 38.76 120.38 38.76V45.62H120.34L116.49 45.94C114.55 45.94 112.99 47.5 112.99 49.43V61.3H115.36L110.18 63.2C109.41 63.47 108.91 64.2 108.9 65V66.58L124.78 66.72L124.82 55.76H133.52L133.57 76.37L149.73 76.22L149.71 74.62C149.71 73.8 149.19 73.07 148.41 72.79L143.15 70.86H145.58V60.48C145.81 60.57 146.06 60.62 146.33 60.62C146.55 60.62 146.78 60.58 147.01 60.5C147.79 60.2 148.27 59.48 148.27 58.62V55.92C149.03 56.13 149.74 55.99 150.34 55.5C151.16 55.79 151.82 55.55 152.41 54.93H152.48C152.48 54.93 152.62 54.93 152.74 54.95C153 54.98 153.26 54.95 153.51 54.84C154.04 54.61 154.22 54.16 154.22 53.64V48.57L154.26 36.53C154.21 30.71 149.46 25.97 143.61 25.97L143.62 25.96ZM103.39 27.73C104.49 27.61 105.56 28.16 105.38 29.47C105.34 29.78 105.06 29.93 104.69 29.91C104.16 29.88 103.62 29.91 103.09 29.91H101.39C101.31 29.91 101.2 29.97 101.21 29.8C101.57 29.01 102.23 28.17 103.39 27.74V27.73ZM104.82 37.46C104.59 37.5 104.35 37.5 104.1 37.46C103.91 37.43 103.74 37.4 103.61 37.36C102.78 37.13 102.08 36.47 101.56 35.59C102.56 35.59 104.44 35.59 104.65 35.59C105.02 35.56 105.26 35.72 105.39 36.03C105.52 36.34 105.43 37.35 104.82 37.46ZM104.85 34.63C103.63 34.63 102.4 34.63 101.18 34.63C101.15 34.63 101.13 34.63 101.11 34.63C100.96 34.22 100.85 33.77 100.78 33.32C100.91 33.27 101.13 33.27 101.48 33.27H102.91C103.56 33.27 104.2 33.27 104.85 33.27C105.26 33.27 105.46 33.52 105.46 34.02C105.44 34.46 105.27 34.63 104.85 34.63ZM105.26 32.2C105.17 32.31 101.56 32.29 100.89 32.3C100.8 32.3 100.74 32.3 100.7 32.26C100.7 31.92 100.72 31.55 100.78 31.21C100.78 31.14 100.8 31.07 100.81 31C100.97 30.87 101.27 30.87 101.85 30.87C102.81 30.87 103.77 30.87 104.72 30.87C105.08 30.87 105.29 31.04 105.41 31.33C105.51 31.64 105.5 31.95 105.26 32.21V32.2ZM111.74 37.71C110.19 37.78 107.66 37.78 105.76 37.65C106.47 36.95 105.87 35.36 105.87 35.14C105.87 34.9 106.18 34.69 106.24 34.4C106.37 33.89 106.31 33.41 105.99 32.98C105.88 32.84 105.87 32.75 105.99 32.6C106.46 31.93 106.43 31.22 105.93 30.55C105.86 30.46 105.78 30.4 105.88 30.26C106.4 29.54 106.21 28.23 105.48 27.45C106.4 27.47 107.35 27.45 107.4 27.45H107.87L107.9 26.97C107.9 26.94 107.92 26.63 107.9 26.41C107.64 23.79 108.13 21.9 109.35 20.96C110.17 20.32 111.13 20.25 111.58 20.3C111.65 21.01 111.73 23.21 111.74 26.94C111.74 27.16 111.74 27.38 111.74 27.6V37.72V37.71ZM126.43 12.76L140.37 12.9L143.04 19.54C143.14 19.74 143.36 20.17 143.21 20.42C143.13 20.54 142.76 20.93 141.04 20.93C140.96 20.93 140.88 20.93 140.79 20.93C140.65 20.93 140.5 20.95 140.35 20.96C139.99 21 139.74 21.34 139.79 21.7V22.59C139.03 21.87 137.8 21.84 136.96 22.01C136.46 22.1 135.97 22.16 135.43 21.94C134.78 21.68 134.51 21.03 134.47 20.46C134.47 20.34 134.32 20.52 134.31 20.53C134.22 20.64 134.13 20.75 134.05 20.87C133.87 21.16 133.8 21.52 133.82 21.9C133.86 22.5 134.2 23.26 134.69 23.76C135.51 24.62 137.25 25.44 138.59 25.5C138.88 25.5 139.16 25.46 139.43 25.35C138.9 27.15 138.3 28.92 137.68 30.59L137.44 31.23V28.69C137.44 28.03 136.83 27.62 136.31 27.91L133.43 29.55C133.2 29.69 133.06 29.92 133.01 30.16C132.96 29.92 132.82 29.69 132.59 29.55L129.71 27.91C129.19 27.62 128.59 28.03 128.59 28.69L128.57 31.58C127.83 29.74 127.12 27.75 126.46 25.68V12.75H126.43V12.76ZM123.7 33.14C123.92 32.93 124.39 32.59 124.72 32.34C125.96 31.42 126.55 30.96 126.47 30.39C126.47 30.37 126.47 30.36 126.47 30.34C126.42 30.1 126.29 29.97 124.15 28.42C123.55 27.98 122.75 27.4 122.4 27.12C122.78 26.57 124.44 25.36 125.18 25.08C125.7 26.84 126.29 28.55 126.89 30.18C128.77 35.15 130.84 39.33 132.15 41.81C129.35 39.2 124.5 34.33 123.71 33.14H123.7ZM133.01 41.24C132.13 39.59 130.93 37.19 129.68 34.32C129.55 34.02 129.43 33.72 129.32 33.41C129.28 33.29 129.2 33.1 129.11 32.89C129.29 32.95 129.49 32.95 129.68 32.84L132.58 31.17C132.79 31.05 132.92 30.84 132.97 30.61C133.02 30.84 133.15 31.05 133.36 31.17L136.25 32.84C136.41 32.93 136.58 32.94 136.74 32.91L136.55 33.42C135.28 36.6 134 39.32 133.01 41.24ZM141.38 29.16C139.38 30.61 139.14 30.81 139.07 31.04C139.07 31.07 139.05 31.1 139.05 31.14C138.97 31.7 139.56 32.17 140.8 33.09C141.12 33.32 141.59 33.66 141.81 33.88C141.03 34.95 136.71 39.07 134.32 41.35C134.19 41.48 134.06 41.6 133.93 41.72C134.63 40.35 135.22 39.1 135.23 39.07C136.22 36.99 137.47 34.15 138.67 30.89C139.25 29.29 139.83 27.58 140.35 25.83C141.1 26.11 142.75 27.31 143.13 27.87C142.78 28.14 141.98 28.71 141.38 29.16ZM153.21 53.36V53.63C153.21 53.92 152.97 54.17 152.67 54.17C152.26 54.17 152.16 53.73 152.15 53.71C151.99 53.36 151.58 53.49 151.56 53.76C151.56 53.8 151.58 54.45 151.49 54.59C151.49 54.59 151.49 54.61 151.49 54.62L151.42 54.69C151.31 54.79 151.17 54.85 151.01 54.85H150.97C150.87 54.85 150.73 54.85 150.6 54.76C150.53 54.72 150.38 54.5 150.36 54.46C150.16 54.12 150.17 53.85 149.83 53.88C149.56 53.91 149.52 54.2 149.54 54.31C149.54 54.36 149.56 54.67 149.56 54.72C149.56 54.86 149.5 54.99 149.39 55.09C149.37 55.11 149.34 55.14 149.3 55.16C149.2 55.22 149.08 55.26 148.95 55.26C148.95 55.26 148.81 55.26 148.75 55.26C148.49 55.23 148.06 55 148.09 54.34C148.11 53.77 147.24 53.77 147.21 54.18C147.19 54.57 147.23 56.2 147.23 56.2V58.65C147.23 59.07 147 59.42 146.63 59.56C146.27 59.71 145.83 59.56 145.59 59.24V48.59H153.25V53.37H153.22L153.21 53.36Z" fill="white"/>
<path d="M39.08 133.03C38.44 133.06 37.81 133.11 37.16 133.08C-20.45 130.06 -4.28 57.48 44.61 56.47H90.78L92.97 53.45H100.77L99.59 56.47L95.69 66.55H53.83C29.53 65.66 9.46 102.6 28.85 119.96C33.36 123.99 39.31 126.03 45.36 126.03H160.79C162.63 126.03 164.29 124.9 164.95 123.18L171.14 107.36C171.16 107.29 171.18 107.21 171.21 107.14L177.75 90.24L178.27 88.89C179.36 86.06 182.09 84.19 185.13 84.19H222.18L219.84 90.24L211.25 112.42L208.92 118.47H192.48L194.81 112.42L202.87 91.6C203.12 90.94 202.64 90.24 201.93 90.24H196.42C195.14 90.24 194 91.02 193.54 92.21L186.16 111.27L180.93 126.03L179.64 129.36C178.77 131.61 176.6 133.09 174.19 133.09H39.08V133.03Z" fill="#EC1C24"/>
<path d="M481.64 80.09L472.79 102.96C472.72 103.14 472.69 103.33 472.69 103.52C472.69 104.06 472.92 104.55 473.3 104.89H463.27L467.71 93.44H463.21L459.56 102.92C459.49 103.11 459.44 103.31 459.44 103.52C459.44 104.06 459.67 104.55 460.05 104.89H450.02L458.81 82.23L458.95 81.88L459.15 81.37C459.18 81.29 459.2 81.2 459.2 81.11C459.2 80.92 459.17 80.74 459.12 80.57C459.07 80.4 458.99 80.24 458.9 80.09H468.39L464.6 89.87H469.1L472.09 82.17C472.19 81.92 472.26 81.65 472.3 81.38C472.31 81.28 472.33 81.18 472.33 81.11C472.33 80.92 472.3 80.74 472.25 80.57C472.2 80.4 472.12 80.24 472.03 80.09H481.64Z" fill="#EC1C24"/>
<path d="M514.55 80.09L505.74 102.78C505.65 103.02 505.6 103.27 505.6 103.52C505.6 104.06 505.83 104.55 506.21 104.89H496.18L500.23 94.46L499.14 93.65L492.3 102.06C492.07 102.34 491.86 102.64 491.66 102.95L491.58 103.08C491.28 103.55 491.18 104.13 491.33 104.67C491.35 104.76 491.38 104.83 491.41 104.89H482L490.82 82.16C490.92 81.91 490.99 81.64 491.03 81.37C491.04 81.27 491.06 81.17 491.06 81.1C491.06 80.91 491.03 80.73 490.98 80.56C490.93 80.39 490.85 80.23 490.76 80.08H500.37L496.17 90.91L497.91 91.73L505.72 82.11C505.95 81.82 506.09 81.47 506.1 81.1C506.1 80.9 506.07 80.72 506.02 80.55C505.97 80.39 505.83 80.07 505.83 80.07H514.55V80.09Z" fill="#EC1C24"/>
<path d="M549.47 80.09L549.32 80.23L548.96 80.57L538.99 89.93L541.35 98.75C541.55 99.51 542.2 100.08 542.98 100.13H543.28L541.78 103.99C541.57 104.54 541.04 104.9 540.46 104.9H535.21C534.57 104.9 534.01 104.47 533.84 103.85L533.64 103.11L531.48 95.05L527.61 98.68L526.19 102.33L525.89 103.1C525.8 103.34 525.77 103.61 525.82 103.87C525.85 104.04 525.9 104.23 525.95 104.34C526.05 104.55 526.19 104.73 526.36 104.89H516.45L525.27 82.16C525.37 81.91 525.44 81.64 525.48 81.37C525.49 81.27 525.51 81.17 525.51 81.1C525.51 80.91 525.48 80.73 525.43 80.56C525.39 80.44 525.35 80.33 525.29 80.22C525.26 80.17 525.24 80.13 525.21 80.08H534.82L534.77 80.22L534.64 80.56L534.13 81.87L532.71 85.52L534.19 86.56L538.33 82.67L538.55 82.46C538.68 82.34 538.79 82.21 538.89 82.07C538.99 81.93 539.08 81.77 539.13 81.6C539.18 81.43 539.21 81.26 539.21 81.08C539.21 80.89 539.18 80.71 539.13 80.54C539.09 80.42 539.05 80.31 538.99 80.2C538.96 80.15 538.94 80.11 538.91 80.06H549.47V80.09Z" fill="#EC1C24"/>
<path d="M419.03 80.09L418.85 80.57L418.34 81.88L417.44 84.19C417.23 84.74 416.7 85.1 416.12 85.1H408.39L406.54 89.87H413.19L412.15 92.54C411.94 93.09 411.41 93.45 410.83 93.45H406.12C405.53 93.45 405.01 93.81 404.8 94.36L402.56 100.13H410.03C410.7 100.13 411.28 99.78 411.6 99.25L411.26 100.13L410.1 103.11L409.76 103.99C409.55 104.54 409.02 104.9 408.44 104.9H391.97L400.79 82.17C400.89 81.92 400.96 81.65 401 81.38C401.01 81.28 401.03 81.18 401.03 81.11C401.03 80.92 401 80.74 400.95 80.57C400.9 80.4 400.82 80.24 400.73 80.09H419.03Z" fill="#EC1C24"/>
<path d="M393.18 80.09L393 80.57L392.49 81.88L391.59 84.19C391.38 84.74 390.85 85.1 390.27 85.1H386.29L379.45 102.72C379.37 102.94 379.32 103.17 379.32 103.4C379.32 103.89 379.51 104.33 379.81 104.66C379.89 104.75 379.98 104.83 380.07 104.89H370.03L377.71 85.09H374.54C373.92 85.09 373.34 85.21 372.8 85.44L372.93 85.09L374.18 81.87L374.33 81.48C374.55 80.92 375.08 80.56 375.68 80.56H391.12C391.85 80.56 392.54 80.39 393.14 80.08H393.18V80.09Z" fill="#EC1C24"/>
<path d="M448.63 80.09L437.73 91.13L440.05 102.4C440.18 103.05 440.44 103.67 440.83 104.21C441.05 104.52 441.31 104.79 441.58 104.89H432.57L431.12 97.82C431.12 97.82 426.31 102.38 425.99 103.01L425.96 103.09C425.88 103.29 425.84 103.51 425.84 103.75C425.84 104.18 425.99 104.57 426.23 104.88H417.24L429.93 92.03L428.1 83.13C428.08 83.02 428.06 82.9 428.04 82.79C428.01 82.62 427.97 82.45 427.93 82.29L427.84 82.02C427.81 81.92 427.77 81.83 427.73 81.73C427.54 81.3 427.29 80.91 426.99 80.56C426.84 80.39 426.68 80.23 426.5 80.08H435.47L435.57 80.56L435.84 81.87L436.5 85.09L436.55 85.33L436.79 85.09L439.11 82.74L439.23 82.62C439.23 82.62 439.52 82.34 439.69 82.07C439.87 81.79 440.03 81.43 440.03 81.1C440.03 80.91 440 80.73 439.95 80.56C439.9 80.39 439.82 80.23 439.73 80.08H448.63V80.09Z" fill="#EC1C24"/>
</svg>
