<svg width="556" height="144" viewBox="0 0 556 144" fill="none" xmlns="http://www.w3.org/2000/svg">
<path d="M551.77 113.9L548.99 120.96H275.57C274.36 120.96 273.52 119.74 273.96 118.61L275.39 114.91L278.9 105.84L280 103.02C280.76 101.07 282.63 99.79 284.72 99.79H303.13C304.79 99.79 306.3 98.76 306.9 97.21L307.46 95.76L308.62 92.74H301.53C300.93 92.74 300.39 93.1 300.18 93.67L299.37 95.77H282.8L283.98 92.75L284.92 90.3C285.76 88.13 287.85 86.7 290.18 86.7H323C324.89 86.7 326.18 88.57 325.5 90.32L324.56 92.75L323.39 95.77L321.83 99.8L319.49 105.85L316.38 113.91H551.77V113.9ZM302.42 108.75C302.96 107.34 301.93 105.83 300.41 105.83H295.47L291.95 114.9H300.03L302.42 108.75Z" fill="#EC1C24"/>
<path d="M361.95 133.51C361.82 134.23 362.17 134.33 363.09 134.33C363.24 134.33 363.38 134.32 363.52 134.3L364.21 134.91L363.49 135.7C363 136.04 362.71 136.14 361.49 136.14C359.87 136.14 359.32 135.39 359.54 134.13C359.56 134.04 359.72 133.38 359.91 132.95L362 127.88C362.04 127.79 362.08 127.66 362.09 127.56C362.14 127.33 362.05 127.22 361.78 127.15L361.89 126.89H363.64C363.99 126.89 364.18 126.98 364.25 127.16C364.29 127.25 364.3 127.38 364.27 127.52C364.25 127.65 364.18 127.84 364.11 128.02L362.2 132.65C362.07 133 361.98 133.29 361.95 133.51Z" fill="#231F20"/>
<path d="M361.95 137.32C363.01 137.32 363.67 136.86 364.16 135.67L364.52 134.7H364.4L364.21 134.91L363.52 134.3C364.46 134.15 365.01 133.5 365.4 132.59L367.34 127.89C367.37 127.8 367.41 127.67 367.43 127.57C367.47 127.34 367.39 127.23 367.12 127.16L367.23 126.9H368.98C369.53 126.9 369.69 127.13 369.62 127.54C369.6 127.67 369.53 127.86 369.46 128.04L366.16 136.08C365.43 137.84 364.24 139.13 362.02 139.13H359.68C358.69 139.13 358.08 138.86 358.22 138.07C358.25 137.91 358.33 137.67 358.39 137.52L358.72 136.72H358.94C359.1 137.21 359.45 137.32 360.28 137.32H361.95Z" fill="#231F20"/>
<path d="M356.01 97.27L355.96 97.54L355.7 98.33L354.73 101.15H343.77L344.86 97.93L345.09 97.27H356.01Z" fill="#EC1C24"/>
<path d="M356.98 128.59H355.83C354.46 128.59 353.36 129.52 352.55 131.49C352.21 132.33 352.03 132.81 351.94 133.36C351.8 134.13 352.14 134.34 352.93 134.34C354.16 134.34 354.77 133.86 355.37 132.43L356.98 128.59ZM349.45 133.88C349.56 133.28 349.79 132.45 350.2 131.49C351.58 128.14 353.7 126.88 356.14 126.88H358.98C359.48 126.88 359.65 127.12 359.58 127.52C359.57 127.56 359.52 127.72 359.46 127.88L356.03 136.14C355.3 137.9 353.93 139.12 351.71 139.12H349.6C348.61 139.12 348 138.85 348.14 138.06C348.17 137.9 348.25 137.66 348.31 137.51L348.64 136.71H348.86C349.02 137.2 349.37 137.31 350.19 137.31H351.48C353.03 137.31 353.74 136.56 354.11 135.57L354.38 134.83H354.22L353.33 135.73C352.83 136.01 352.29 136.13 351.34 136.13C349.82 136.13 349.17 135.48 349.45 133.88Z" fill="#231F20"/>
<path d="M345.9 128.52C344.65 128.52 343.93 129 342.88 131.56C342.57 132.35 342.35 132.99 342.25 133.47C342.09 134.44 342.41 134.83 343.34 134.83C344.55 134.83 345.3 134.28 346.41 131.65C346.71 130.93 346.9 130.35 346.99 129.89C347.16 128.93 346.81 128.52 345.9 128.52ZM348.66 131.79C347.02 135.69 345.65 136.62 342.71 136.62C340.62 136.62 339.57 135.74 339.97 133.56C340.07 132.98 340.28 132.28 340.61 131.49C342.08 127.88 343.47 126.72 346.56 126.72C348.83 126.72 349.59 127.93 349.25 129.89C349.15 130.46 348.94 131.1 348.66 131.79Z" fill="#231F20"/>
<path d="M334.47 135.78C334.43 136.03 334.55 136.13 334.84 136.2L334.74 136.49H333.01C332.4 136.49 332.23 136.24 332.31 135.75C332.32 135.7 332.41 135.42 332.5 135.21L335.53 127.85C335.56 127.76 335.6 127.64 335.61 127.56C335.66 127.28 335.52 127.19 335.3 127.14L335.41 126.88H341.89L341.41 128.02C341.23 128.46 340.98 128.68 340.49 128.68H338.32C337.69 128.68 337.26 128.93 336.92 129.75L334.57 135.45C334.52 135.6 334.48 135.74 334.47 135.78Z" fill="#231F20"/>
<path d="M322.37 135.34C322.34 135.41 322.3 135.53 322.28 135.66C322.22 135.97 322.36 136.1 322.63 136.15L322.5 136.49H320.39C319.93 136.49 319.74 136.19 319.83 135.73C319.86 135.58 319.9 135.45 319.93 135.38L323.47 126.78C323.56 126.57 323.62 126.41 323.63 126.37C323.66 126.23 323.6 126.14 323.4 126.14H323.32C322.86 126.14 322.66 126.02 322.72 125.72C322.75 125.56 322.81 125.38 323.31 124.19H326.12C326.59 124.19 326.68 124.58 326.61 124.94C326.61 124.96 326.56 125.12 326.53 125.21L322.37 135.34Z" fill="#231F20"/>
<path d="M314.95 129.02C315.23 128.35 315.43 127.81 315.5 127.4C315.66 126.47 315.27 126.06 314.13 126.06C312.6 126.06 312.03 126.63 311.53 127.96C311.37 128.38 311.24 128.81 311.2 129.01C311.05 129.87 311.52 130.04 312.77 130.04H314.51L314.95 129.02ZM309.21 127.75C310.46 124.61 311.97 124.1 314.73 124.1C317.34 124.1 318.35 124.98 318.03 126.8C317.93 127.32 317.74 128.02 317.45 128.77L316.27 131.69C314.65 135.71 313.5 136.5 310.96 136.5H307.89C307.16 136.5 306.82 136.32 306.92 135.73C306.94 135.59 306.99 135.41 307.08 135.22L307.64 133.83H307.96C307.94 134.27 308.1 134.45 308.63 134.45H311C312.23 134.45 312.92 133.93 313.47 132.63L313.74 131.99H311.43C309.41 131.99 308.44 131.16 308.78 129.23C308.85 128.75 308.98 128.31 309.21 127.75Z" fill="#231F20"/>
<path d="M304.74 129.02C305.01 128.35 305.22 127.81 305.29 127.4C305.45 126.47 305.06 126.06 303.92 126.06C302.38 126.06 301.81 126.63 301.32 127.96C301.15 128.38 301.03 128.81 300.99 129.01C300.84 129.87 301.31 130.04 302.55 130.04H304.3L304.74 129.02ZM296.86 135.22L297.42 133.83H297.74C297.72 134.27 297.88 134.45 298.4 134.45H300.78C302.01 134.45 302.7 133.93 303.24 132.63L303.51 131.99H301.21C299.19 131.99 298.22 131.16 298.56 129.23C298.64 128.75 298.77 128.3 298.99 127.75C300.24 124.61 301.74 124.1 304.51 124.1C307.11 124.1 308.12 124.98 307.8 126.8C307.71 127.32 307.52 128.02 307.23 128.77L306.05 131.69C304.43 135.71 303.27 136.5 300.74 136.5H297.67C296.93 136.5 296.59 136.32 296.7 135.73C296.72 135.59 296.77 135.41 296.86 135.22Z" fill="#231F20"/>
<path d="M289.19 135.74C289.22 135.59 289.26 135.46 289.29 135.39L292.83 126.79C292.92 126.58 292.99 126.42 292.99 126.38C293.02 126.24 292.96 126.15 292.77 126.15H292.68C292.22 126.15 292.02 126.03 292.08 125.73C292.11 125.57 292.18 125.39 292.67 124.2H295.49C295.95 124.2 296.04 124.59 295.98 124.95C295.97 124.97 295.93 125.13 295.89 125.22L291.73 135.35C291.7 135.42 291.66 135.54 291.64 135.67C291.58 135.98 291.72 136.11 291.99 136.16L291.86 136.5H289.75C289.29 136.5 289.12 136.2 289.19 135.74Z" fill="#231F20"/>
<path d="M277.76 86.68L275.41 92.73L266.83 114.91L264.5 120.96H248.05L250.39 114.91L258.45 94.09C258.7 93.43 258.22 92.73 257.51 92.73H251.99C250.72 92.73 249.58 93.51 249.12 94.7L241.29 114.91L240 118.27C239.38 119.89 237.81 120.96 236.08 120.96H216.33L218.68 114.91H219.06C222.48 114.91 225.55 112.81 226.78 109.63L233.31 92.73L233.83 91.38C234.93 88.55 237.66 86.68 240.7 86.68H277.76Z" fill="#EC1C24"/>
<path d="M275.4 126.88H279.51C281.2 126.88 281.97 127.79 281.77 128.94C281.74 129.1 281.69 129.28 281.63 129.44C281.29 130.28 280.79 130.97 279.83 131.15C280.6 131.5 280.89 132.02 280.74 132.89C280.7 133.1 280.6 133.52 280.44 133.89C279.71 135.66 278.72 136.49 276.48 136.49H273C272.4 136.49 272.22 136.24 272.3 135.75C272.31 135.7 272.4 135.42 272.49 135.21L275.52 127.85C275.55 127.76 275.59 127.64 275.6 127.56C275.65 127.28 275.51 127.19 275.29 127.14L275.4 126.88ZM278.47 133.06C278.56 132.56 278.36 132.13 277.38 132.13H275.94L274.84 134.78H276.29C277.57 134.79 278.27 134.2 278.47 133.06ZM278.03 130.53C278.92 130.53 279.44 129.98 279.57 129.27C279.64 128.84 279.4 128.58 278.77 128.58H277.38L276.59 130.53H278.03Z" fill="#231F20"/>
<path d="M262 136.21C261.62 136.46 261.34 136.62 260.15 136.62C258.96 136.62 257.82 136.16 258.11 134.5C258.16 134.23 258.29 133.76 258.47 133.32C259.44 131.02 260.52 130.16 262.8 130.16H264.4C264.88 130.16 265.14 130.02 265.41 129.4C265.48 129.22 265.54 129.08 265.56 128.97C265.61 128.69 265.47 128.58 265.04 128.58H262.45C262.01 128.58 261.77 128.46 261.85 128.11C261.86 128.02 261.9 127.89 262.33 126.88H266.36C267.63 126.88 268.08 127.42 267.9 128.44C267.86 128.67 267.78 128.93 267.66 129.23L265.1 135.44C265.03 135.6 264.99 135.74 264.98 135.78C264.94 136.03 265.06 136.13 265.35 136.2L265.25 136.49H263.52C262.94 136.49 262.74 136.24 262.82 135.8C262.84 135.68 262.92 135.43 263.01 135.21H262.85L262 136.21ZM261.73 134.83C262.45 134.83 262.99 134.56 263.4 134.3L264.39 131.89H262.82C261.75 131.89 261.19 132.35 260.78 133.35C260.66 133.61 260.58 133.88 260.55 134.05C260.45 134.61 260.77 134.83 261.73 134.83Z" fill="#231F20"/>
<path d="M248.3 135.22L251.33 127.86C251.36 127.77 251.4 127.65 251.42 127.57C251.47 127.29 251.32 127.2 251.1 127.15L251.22 126.89H252.97C253.53 126.89 253.68 127.13 253.6 127.55C253.59 127.64 253.51 127.9 253.45 128.03L252.39 130.59H255.45L256.58 127.87C256.61 127.78 256.64 127.71 256.67 127.57C256.71 127.34 256.62 127.23 256.35 127.16L256.47 126.9H258.21C258.76 126.9 258.93 127.13 258.86 127.52C258.84 127.62 258.76 127.9 258.7 128.03L255.64 135.45C255.57 135.61 255.53 135.75 255.52 135.81C255.48 136.02 255.6 136.14 255.89 136.21L255.79 136.5H254.06C253.48 136.5 253.28 136.25 253.36 135.81C253.38 135.71 253.46 135.44 253.55 135.22L254.76 132.3H251.7L250.39 135.45C250.33 135.61 250.28 135.75 250.28 135.79C250.23 136.04 250.36 136.14 250.65 136.21L250.54 136.5H248.81C248.21 136.5 248.03 136.25 248.12 135.76C248.13 135.71 248.21 135.43 248.3 135.22Z" fill="#231F20"/>
<path d="M239.19 133.33C240.16 131.03 241.24 130.17 243.51 130.17H245.12C245.6 130.17 245.86 130.03 246.13 129.41C246.2 129.23 246.26 129.09 246.28 128.98C246.33 128.7 246.19 128.59 245.76 128.59H243.17C242.73 128.59 242.49 128.47 242.56 128.12C242.58 128.03 242.62 127.9 243.05 126.89H247.08C248.35 126.89 248.8 127.43 248.62 128.45C248.58 128.68 248.5 128.94 248.38 129.24L245.82 135.45C245.75 135.61 245.71 135.75 245.7 135.79C245.66 136.04 245.78 136.14 246.07 136.21L245.97 136.5H244.24C243.65 136.5 243.46 136.25 243.53 135.81C243.56 135.69 243.64 135.44 243.73 135.22H243.57L242.71 136.21C242.33 136.46 242.04 136.62 240.86 136.62C239.68 136.62 238.53 136.16 238.82 134.5C238.86 134.23 239.01 133.77 239.19 133.33ZM241.26 134.04C241.16 134.6 241.47 134.83 242.44 134.83C243.16 134.83 243.7 134.56 244.1 134.3L245.1 131.89H243.53C242.46 131.89 241.9 132.35 241.49 133.35C241.37 133.61 241.29 133.88 241.26 134.04Z" fill="#231F20"/>
<path d="M236.01 128.59H234.62L233.82 130.54H235.25C236.15 130.54 236.67 129.99 236.79 129.28C236.88 128.84 236.64 128.59 236.01 128.59ZM232.63 126.88H236.73C238.43 126.88 239.2 127.79 238.99 128.94C238.97 129.1 238.92 129.28 238.85 129.44C238.51 130.28 238.01 130.97 237.06 131.15C237.82 131.5 238.12 132.02 237.97 132.89C237.93 133.1 237.82 133.52 237.67 133.89C236.94 135.66 235.94 136.49 233.71 136.49H230.22C229.62 136.49 229.44 136.24 229.53 135.75C229.54 135.7 229.62 135.42 229.71 135.21L232.74 127.85C232.77 127.76 232.81 127.64 232.83 127.56C232.88 127.28 232.73 127.19 232.51 127.14L232.63 126.88ZM235.7 133.06C235.79 132.56 235.6 132.13 234.61 132.13H233.17L232.07 134.78H233.52C234.8 134.79 235.5 134.2 235.7 133.06Z" fill="#231F20"/>
<path d="M227.58 129.89C227.75 128.93 227.4 128.52 226.48 128.52C225.23 128.52 224.52 129 223.46 131.56C223.15 132.35 222.93 132.99 222.85 133.47C222.68 134.44 223 134.83 223.93 134.83C225.14 134.83 225.89 134.28 227.01 131.65C227.31 130.94 227.5 130.35 227.58 129.89ZM220.56 133.56C220.66 132.98 220.88 132.28 221.2 131.49C222.68 127.88 224.06 126.72 227.15 126.72C229.42 126.72 230.18 127.93 229.84 129.89C229.74 130.46 229.54 131.1 229.26 131.8C227.63 135.7 226.25 136.63 223.31 136.63C221.21 136.62 220.17 135.74 220.56 133.56Z" fill="#231F20"/>
<path d="M215.49 128.02L214.43 130.58H217.49L218.62 127.86C218.65 127.77 218.68 127.7 218.71 127.56C218.75 127.33 218.66 127.22 218.39 127.15L218.51 126.89H220.25C220.8 126.89 220.97 127.12 220.9 127.51C220.88 127.61 220.79 127.89 220.74 128.02L217.68 135.44C217.61 135.6 217.57 135.74 217.56 135.8C217.52 136.01 217.64 136.13 217.93 136.2L217.83 136.49H216.1C215.52 136.49 215.32 136.24 215.4 135.8C215.41 135.7 215.5 135.43 215.59 135.21L216.8 132.29H213.74L212.43 135.44C212.37 135.6 212.32 135.74 212.32 135.78C212.27 136.03 212.4 136.13 212.68 136.2L212.58 136.49H210.85C210.25 136.49 210.07 136.24 210.16 135.75C210.17 135.7 210.25 135.42 210.34 135.21L210.39 135.08L213.37 127.85C213.4 127.76 213.44 127.64 213.46 127.56C213.51 127.28 213.36 127.19 213.14 127.14L213.26 126.88H215.01C215.57 126.88 215.72 127.12 215.63 127.54C215.63 127.63 215.55 127.89 215.49 128.02Z" fill="#231F20"/>
<path d="M206.73 134.83C207.59 134.83 207.93 134.79 208.38 134.37H208.63L208.23 135.33C207.83 136.31 207.25 136.63 205.63 136.63H204.48C202.65 136.63 201.57 135.84 201.94 133.73C202.04 133.18 202.24 132.55 202.53 131.8C204.2 127.69 206.18 126.89 207.54 126.89H210.97L210.51 128.01C210.35 128.43 210.1 128.59 209.62 128.59H207.92C206.71 128.59 205.92 129.21 204.92 131.65C204.58 132.51 204.36 133.11 204.26 133.63C204.11 134.53 204.53 134.83 205.61 134.83H206.73Z" fill="#231F20"/>
<path d="M199.53 129.89C199.7 128.93 199.35 128.52 198.43 128.52C197.18 128.52 196.47 129 195.42 131.56C195.1 132.35 194.88 132.99 194.79 133.47C194.62 134.44 194.94 134.83 195.87 134.83C197.09 134.83 197.83 134.28 198.94 131.65C199.26 130.94 199.45 130.35 199.53 129.89ZM201.19 131.79C199.56 135.69 198.18 136.62 195.25 136.62C193.15 136.62 192.11 135.74 192.5 133.56C192.61 132.98 192.82 132.28 193.14 131.49C194.62 127.88 196 126.72 199.09 126.72C201.36 126.72 202.13 127.93 201.78 129.89C201.68 130.46 201.48 131.1 201.19 131.79Z" fill="#231F20"/>
<path d="M172.13 86.68C173.83 86.68 175 88.38 174.4 89.97L173.33 92.73L170.59 99.79L168.25 105.85C167.79 107.06 166.62 107.86 165.33 107.86H142.22L141.17 110.56C140.17 113.14 142.08 115.92 144.85 115.92C146.48 115.92 147.95 114.92 148.54 113.4L148.91 112.45H165.69L164.35 115.92L162.97 119.5C162.63 120.38 161.78 120.96 160.83 120.96H124.17C122.13 120.96 120.74 118.92 121.47 117.04L121.9 115.92L123.46 111.89L125.02 107.86L128.13 99.8L130.87 92.74L131.9 90.06C132.69 88.03 134.64 86.69 136.82 86.69H172.13V86.68ZM155.36 95.77C155.92 94.3 154.84 92.73 153.26 92.73H148.06L145.32 99.79H153.81L155.36 95.77Z" fill="#EC1C24"/>
<path d="M122.08 75.09C125.78 75.09 128.33 78.79 127 82.24L126.65 83.16L125.47 86.18L112.21 120.45H96.27L108.93 87.72C109.21 86.97 108.66 86.18 107.86 86.18H103.41C101.99 86.18 100.71 87.05 100.2 88.37L87.77 120.46H69.2L81.97 87.43C82.2 86.84 81.76 86.19 81.12 86.19H77.89C76.47 86.19 75.2 87.06 74.68 88.38L62.26 120.47H46.32L59.59 86.2L60.75 83.18H57.96L60.31 77.11C60.77 75.91 61.93 75.11 63.23 75.11H80.74C82.53 75.11 84.15 76.22 84.77 77.9L84.84 78.09C85.07 78.69 85.78 78.97 86.35 78.65L89.08 77.19C89.54 76.94 90.03 76.71 90.51 76.49C91.89 75.9 93.37 75.6 94.87 75.6H98.59C99.51 75.6 100.42 75.87 101.1 76.49C101.21 76.59 101.31 76.69 101.4 76.8C101.59 77.01 101.71 77.27 101.81 77.55C102.14 78.44 103.18 78.83 104.03 78.39L107.76 76.38C109.33 75.54 111.09 75.1 112.87 75.1H122.08V75.09Z" fill="#EC1C24"/>
<path d="M139.87 20.63C140.577 20.63 141.15 20.0569 141.15 19.35C141.15 18.6431 140.577 18.07 139.87 18.07C139.163 18.07 138.59 18.6431 138.59 19.35C138.59 20.0569 139.163 20.63 139.87 20.63Z" fill="#1C1C1C"/>
<path d="M146.62 28.96H145.71C145.65 28.96 145.59 28.94 145.53 28.93C144.98 28.52 144.36 28.13 143.83 27.91V24.97H144.05C145.68 24.97 146.68 24.64 147.09 23.95C147.54 23.21 147.14 22.42 146.97 22.07L144.49 15.9L147.82 15.93C148.63 15.93 149.32 15.32 149.35 14.51C149.37 13.69 148.71 13.02 147.9 13.01L145.73 12.99C145.57 5.88001 141.56 3.80001 136.64 3.79001C131.75 3.79001 127.77 5.83001 127.52 12.81L125.19 12.78C124.37 12.78 123.68 13.39 123.66 14.2C123.63 15.03 124.29 15.7 125.11 15.71L128.4 15.74V27C127.68 27 126.4 27.84 125.52 28.57H115.64C115.64 28.45 115.55 22.65 115.39 22.49C115.01 22.12 113.6 22.11 112.48 22.64C111.05 23.32 109.45 25.04 109.87 29.4C109.49 29.4 108.95 29.4 108.46 29.4C105.38 29.29 103.24 31.02 102.76 34.05C102.3 36.95 103.63 40.59 106.34 41.37C107.39 41.66 110.03 41.78 112.34 41.78C113.24 41.78 123.38 41.76 123.38 41.76V48.62H123.34L119.49 48.94C117.55 48.94 115.99 50.5 115.99 52.43V64.3H118.36L113.18 66.2C112.41 66.47 111.91 67.2 111.9 68V69.58L127.78 69.72L127.82 58.76H136.52L136.57 79.37L152.73 79.22L152.71 77.62C152.71 76.8 152.19 76.07 151.41 75.79L146.15 73.86H148.58V63.48C148.81 63.57 149.06 63.62 149.33 63.62C149.55 63.62 149.78 63.58 150.01 63.5C150.79 63.2 151.27 62.48 151.27 61.62V58.92C152.03 59.13 152.74 58.99 153.34 58.5C154.16 58.79 154.82 58.55 155.41 57.93H155.48C155.48 57.93 155.62 57.93 155.74 57.95C156 57.98 156.26 57.95 156.51 57.84C157.04 57.61 157.22 57.16 157.22 56.64V51.57L157.26 39.53C157.21 33.71 152.46 28.97 146.61 28.97L146.62 28.96ZM106.39 30.73C107.49 30.61 108.56 31.16 108.38 32.47C108.34 32.78 108.06 32.93 107.69 32.91C107.16 32.88 106.62 32.91 106.09 32.91H104.39C104.31 32.91 104.2 32.97 104.21 32.8C104.57 32.01 105.23 31.17 106.39 30.74V30.73ZM107.82 40.46C107.59 40.5 107.35 40.5 107.1 40.46C106.91 40.43 106.74 40.4 106.61 40.36C105.78 40.13 105.08 39.47 104.56 38.59C105.56 38.59 107.44 38.59 107.65 38.59C108.02 38.56 108.26 38.72 108.39 39.03C108.52 39.34 108.43 40.35 107.82 40.46ZM107.85 37.63C106.63 37.63 105.4 37.63 104.18 37.63C104.15 37.63 104.13 37.63 104.11 37.63C103.96 37.22 103.85 36.77 103.78 36.32C103.91 36.27 104.13 36.27 104.48 36.27H105.91C106.56 36.27 107.2 36.27 107.85 36.27C108.26 36.27 108.46 36.52 108.46 37.02C108.44 37.46 108.27 37.63 107.85 37.63ZM108.26 35.2C108.17 35.31 104.56 35.29 103.89 35.3C103.8 35.3 103.74 35.3 103.7 35.26C103.7 34.92 103.72 34.55 103.78 34.21C103.78 34.14 103.8 34.07 103.81 34C103.97 33.87 104.27 33.87 104.85 33.87C105.81 33.87 106.77 33.87 107.72 33.87C108.08 33.87 108.29 34.04 108.41 34.33C108.51 34.64 108.5 34.95 108.26 35.21V35.2ZM114.74 40.71C113.19 40.78 110.66 40.78 108.76 40.65C109.47 39.95 108.87 38.36 108.87 38.14C108.87 37.9 109.18 37.69 109.24 37.4C109.37 36.89 109.31 36.41 108.99 35.98C108.88 35.84 108.87 35.75 108.99 35.6C109.46 34.93 109.43 34.22 108.93 33.55C108.86 33.46 108.78 33.4 108.88 33.26C109.4 32.54 109.21 31.23 108.48 30.45C109.4 30.47 110.35 30.45 110.4 30.45H110.87L110.9 29.97C110.9 29.94 110.92 29.63 110.9 29.41C110.64 26.79 111.13 24.9 112.35 23.96C113.17 23.32 114.13 23.25 114.58 23.3C114.65 24.01 114.73 26.21 114.74 29.94C114.74 30.16 114.74 30.38 114.74 30.6V40.72V40.71ZM129.43 15.76L143.37 15.9L146.04 22.54C146.14 22.74 146.36 23.17 146.21 23.42C146.13 23.54 145.76 23.93 144.04 23.93C143.96 23.93 143.88 23.93 143.79 23.93C143.65 23.93 143.5 23.95 143.35 23.96C142.99 24 142.74 24.34 142.79 24.7V25.59C142.03 24.87 140.8 24.84 139.96 25.01C139.46 25.1 138.97 25.16 138.43 24.94C137.78 24.68 137.51 24.03 137.47 23.46C137.47 23.34 137.32 23.52 137.31 23.53C137.22 23.64 137.13 23.75 137.05 23.87C136.87 24.16 136.8 24.52 136.82 24.9C136.86 25.5 137.2 26.26 137.69 26.76C138.51 27.62 140.25 28.44 141.59 28.5C141.88 28.5 142.16 28.46 142.43 28.35C141.9 30.15 141.3 31.92 140.68 33.59L140.44 34.23V31.69C140.44 31.03 139.83 30.62 139.31 30.91L136.43 32.55C136.2 32.69 136.06 32.92 136.01 33.16C135.96 32.92 135.82 32.69 135.59 32.55L132.71 30.91C132.19 30.62 131.59 31.03 131.59 31.69L131.57 34.58C130.83 32.74 130.12 30.75 129.46 28.68V15.75H129.43V15.76ZM126.7 36.14C126.92 35.93 127.39 35.59 127.72 35.34C128.96 34.42 129.55 33.96 129.47 33.39C129.47 33.37 129.47 33.36 129.47 33.34C129.42 33.1 129.29 32.97 127.15 31.42C126.55 30.98 125.75 30.4 125.4 30.12C125.78 29.57 127.44 28.36 128.18 28.08C128.7 29.84 129.29 31.55 129.89 33.18C131.77 38.15 133.84 42.33 135.15 44.81C132.35 42.2 127.5 37.33 126.71 36.14H126.7ZM136.01 44.24C135.13 42.59 133.93 40.19 132.68 37.32C132.55 37.02 132.43 36.72 132.32 36.41C132.28 36.29 132.2 36.1 132.11 35.89C132.29 35.95 132.49 35.95 132.68 35.84L135.58 34.17C135.79 34.05 135.92 33.84 135.97 33.61C136.02 33.84 136.15 34.05 136.36 34.17L139.25 35.84C139.41 35.93 139.58 35.94 139.74 35.91L139.55 36.42C138.28 39.6 137 42.32 136.01 44.24ZM144.38 32.16C142.38 33.61 142.14 33.81 142.07 34.04C142.07 34.07 142.05 34.1 142.05 34.14C141.97 34.7 142.56 35.17 143.8 36.09C144.12 36.32 144.59 36.66 144.81 36.88C144.03 37.95 139.71 42.07 137.32 44.35C137.19 44.48 137.06 44.6 136.93 44.72C137.63 43.35 138.22 42.1 138.23 42.07C139.22 39.99 140.47 37.15 141.67 33.89C142.25 32.29 142.83 30.58 143.35 28.83C144.1 29.11 145.75 30.31 146.13 30.87C145.78 31.14 144.98 31.71 144.38 32.16ZM156.21 56.36V56.63C156.21 56.92 155.97 57.17 155.67 57.17C155.26 57.17 155.16 56.73 155.15 56.71C154.99 56.36 154.58 56.49 154.56 56.76C154.56 56.8 154.58 57.45 154.49 57.59C154.49 57.59 154.49 57.61 154.49 57.62L154.42 57.69C154.31 57.79 154.17 57.85 154.01 57.85H153.97C153.87 57.85 153.73 57.85 153.6 57.76C153.53 57.72 153.38 57.5 153.36 57.46C153.16 57.12 153.17 56.85 152.83 56.88C152.56 56.91 152.52 57.2 152.54 57.31C152.54 57.36 152.56 57.67 152.56 57.72C152.56 57.86 152.5 57.99 152.39 58.09C152.37 58.11 152.34 58.14 152.3 58.16C152.2 58.22 152.08 58.26 151.95 58.26C151.95 58.26 151.81 58.26 151.75 58.26C151.49 58.23 151.06 58 151.09 57.34C151.11 56.77 150.24 56.77 150.21 57.18C150.19 57.57 150.23 59.2 150.23 59.2V61.65C150.23 62.07 150 62.42 149.63 62.56C149.27 62.71 148.83 62.56 148.59 62.24V51.59H156.25V56.37H156.22L156.21 56.36Z" fill="#1C1C1C"/>
<path d="M42.08 136.03C41.44 136.06 40.81 136.11 40.16 136.08C-17.45 133.06 -1.28 60.48 47.61 59.47H93.78L95.97 56.45H103.77L102.59 59.47L98.69 69.55H56.83C32.53 68.66 12.46 105.6 31.85 122.96C36.36 126.99 42.31 129.03 48.36 129.03H163.79C165.63 129.03 167.29 127.9 167.95 126.18L174.14 110.36C174.16 110.29 174.18 110.21 174.21 110.14L180.75 93.24L181.27 91.89C182.36 89.06 185.09 87.19 188.13 87.19H225.18L222.84 93.24L214.25 115.42L211.92 121.47H195.48L197.81 115.42L205.87 94.6C206.12 93.94 205.64 93.24 204.93 93.24H199.42C198.14 93.24 197 94.02 196.54 95.21L189.16 114.27L183.93 129.03L182.64 132.36C181.77 134.61 179.6 136.09 177.19 136.09H42.08V136.03Z" fill="#EC1C24"/>
<path d="M484.64 83.09L475.79 105.96C475.72 106.14 475.69 106.33 475.69 106.52C475.69 107.06 475.92 107.55 476.3 107.89H466.27L470.71 96.44H466.21L462.56 105.92C462.49 106.11 462.44 106.31 462.44 106.52C462.44 107.06 462.67 107.55 463.05 107.89H453.02L461.81 85.23L461.95 84.88L462.15 84.37C462.18 84.29 462.2 84.2 462.2 84.11C462.2 83.92 462.17 83.74 462.12 83.57C462.07 83.4 461.99 83.24 461.9 83.09H471.39L467.6 92.87H472.1L475.09 85.17C475.19 84.92 475.26 84.65 475.3 84.38C475.31 84.28 475.33 84.18 475.33 84.11C475.33 83.92 475.3 83.74 475.25 83.57C475.2 83.4 475.12 83.24 475.03 83.09H484.64Z" fill="#EC1C24"/>
<path d="M517.55 83.09L508.74 105.78C508.65 106.02 508.6 106.27 508.6 106.52C508.6 107.06 508.83 107.55 509.21 107.89H499.18L503.23 97.46L502.14 96.65L495.3 105.06C495.07 105.34 494.86 105.64 494.66 105.95L494.58 106.08C494.28 106.55 494.18 107.13 494.33 107.67C494.35 107.76 494.38 107.83 494.41 107.89H485L493.82 85.16C493.92 84.91 493.99 84.64 494.03 84.37C494.04 84.27 494.06 84.17 494.06 84.1C494.06 83.91 494.03 83.73 493.98 83.56C493.93 83.39 493.85 83.23 493.76 83.08H503.37L499.17 93.91L500.91 94.73L508.72 85.11C508.95 84.82 509.09 84.47 509.1 84.1C509.1 83.9 509.07 83.72 509.02 83.55C508.97 83.39 508.83 83.07 508.83 83.07H517.55V83.09Z" fill="#EC1C24"/>
<path d="M552.47 83.09L552.32 83.23L551.96 83.57L541.99 92.93L544.35 101.75C544.55 102.51 545.2 103.08 545.98 103.13H546.28L544.78 106.99C544.57 107.54 544.04 107.9 543.46 107.9H538.21C537.57 107.9 537.01 107.47 536.84 106.85L536.64 106.11L534.48 98.05L530.61 101.68L529.19 105.33L528.89 106.1C528.8 106.34 528.77 106.61 528.82 106.87C528.85 107.04 528.9 107.23 528.95 107.34C529.05 107.55 529.19 107.73 529.36 107.89H519.45L528.27 85.16C528.37 84.91 528.44 84.64 528.48 84.37C528.49 84.27 528.51 84.17 528.51 84.1C528.51 83.91 528.48 83.73 528.43 83.56C528.39 83.44 528.35 83.33 528.29 83.22C528.26 83.17 528.24 83.13 528.21 83.08H537.82L537.77 83.22L537.64 83.56L537.13 84.87L535.71 88.52L537.19 89.56L541.33 85.67L541.55 85.46C541.68 85.34 541.79 85.21 541.89 85.07C541.99 84.93 542.08 84.77 542.13 84.6C542.18 84.43 542.21 84.26 542.21 84.08C542.21 83.89 542.18 83.71 542.13 83.54C542.09 83.42 542.05 83.31 541.99 83.2C541.96 83.15 541.94 83.11 541.91 83.06H552.47V83.09Z" fill="#EC1C24"/>
<path d="M422.03 83.09L421.85 83.57L421.34 84.88L420.44 87.19C420.23 87.74 419.7 88.1 419.12 88.1H411.39L409.54 92.87H416.19L415.15 95.54C414.94 96.09 414.41 96.45 413.83 96.45H409.12C408.53 96.45 408.01 96.81 407.8 97.36L405.56 103.13H413.03C413.7 103.13 414.28 102.78 414.6 102.25L414.26 103.13L413.1 106.11L412.76 106.99C412.55 107.54 412.02 107.9 411.44 107.9H394.97L403.79 85.17C403.89 84.92 403.96 84.65 404 84.38C404.01 84.28 404.03 84.18 404.03 84.11C404.03 83.92 404 83.74 403.95 83.57C403.9 83.4 403.82 83.24 403.73 83.09H422.03Z" fill="#EC1C24"/>
<path d="M396.18 83.09L396 83.57L395.49 84.88L394.59 87.19C394.38 87.74 393.85 88.1 393.27 88.1H389.29L382.45 105.72C382.37 105.94 382.32 106.17 382.32 106.4C382.32 106.89 382.51 107.33 382.81 107.66C382.89 107.75 382.98 107.83 383.07 107.89H373.03L380.71 88.09H377.54C376.92 88.09 376.34 88.21 375.8 88.44L375.93 88.09L377.18 84.87L377.33 84.48C377.55 83.92 378.08 83.56 378.68 83.56H394.12C394.85 83.56 395.54 83.39 396.14 83.08H396.18V83.09Z" fill="#EC1C24"/>
<path d="M451.63 83.09L440.73 94.13L443.05 105.4C443.18 106.05 443.44 106.67 443.83 107.21C444.05 107.52 444.31 107.79 444.58 107.89H435.57L434.12 100.82C434.12 100.82 429.31 105.38 428.99 106.01L428.96 106.09C428.88 106.29 428.84 106.51 428.84 106.75C428.84 107.18 428.99 107.57 429.23 107.88H420.24L432.93 95.03L431.1 86.13C431.08 86.02 431.06 85.9 431.04 85.79C431.01 85.62 430.97 85.45 430.93 85.29L430.84 85.02C430.81 84.92 430.77 84.83 430.73 84.73C430.54 84.3 430.29 83.91 429.99 83.56C429.84 83.39 429.68 83.23 429.5 83.08H438.47L438.57 83.56L438.84 84.87L439.5 88.09L439.55 88.33L439.79 88.09L442.11 85.74L442.23 85.62C442.23 85.62 442.52 85.34 442.69 85.07C442.87 84.79 443.03 84.43 443.03 84.1C443.03 83.91 443 83.73 442.95 83.56C442.9 83.39 442.82 83.23 442.73 83.08H451.63V83.09Z" fill="#EC1C24"/>
<path d="M157 8.28003L157.33 8.18003L158.79 10.64H158.39L157 8.28003ZM156.99 8.09003C157.87 8.09003 158.35 7.74003 158.35 7.02003C158.35 6.30003 157.86 6.01003 156.99 6.01003H156.02V8.09003H156.99ZM155.67 5.72003H157.08C158.05 5.72003 158.7 6.08003 158.7 7.02003C158.7 7.96003 158.06 8.38003 157.08 8.38003H156.01V10.64H155.67V5.72003Z" fill="#1C1C1C"/>
<path d="M159.05 10.79H158.32L156.99 8.53002H156.16V10.79H155.54V5.58002H157.09C158.54 5.58002 158.85 6.37002 158.85 7.03002C158.85 7.79002 158.42 8.30002 157.68 8.47002L159.05 10.79ZM158.48 10.5H158.55L157.37 8.51002H157.31L158.48 10.5ZM155.81 10.5H155.87V8.24002V5.87002H156.99C157.64 5.87002 158.49 5.99002 158.49 7.02002C158.49 7.65002 158.14 8.05002 157.5 8.18002V8.20002C158.18 8.08002 158.55 7.66002 158.55 7.01002C158.55 6.23002 158.07 5.85002 157.08 5.85002H155.81V10.51V10.5ZM156.15 7.95002H156.98C157.8 7.95002 158.2 7.65002 158.2 7.02002C158.2 6.39002 157.85 6.15002 156.98 6.15002H156.15V7.95002Z" fill="#1C1C1C"/>
<path d="M157.23 12.57C154.81 12.57 152.84 10.6 152.84 8.18001C152.84 5.76001 154.81 3.79001 157.23 3.79001C159.65 3.79001 161.62 5.76001 161.62 8.18001C161.63 10.6 159.66 12.57 157.23 12.57ZM157.23 4.16001C155.01 4.16001 153.21 5.96001 153.21 8.18001C153.21 10.4 155.01 12.2 157.23 12.2C159.45 12.2 161.25 10.4 161.25 8.18001C161.25 5.96001 159.45 4.16001 157.23 4.16001Z" fill="#1C1C1C"/>
<path d="M157.23 12.72C154.73 12.72 152.7 10.69 152.7 8.19C152.7 5.69 154.73 3.66 157.23 3.66C159.73 3.66 161.76 5.69 161.76 8.19C161.76 10.69 159.73 12.72 157.23 12.72ZM157.23 3.93C154.89 3.93 152.98 5.84 152.98 8.18C152.98 10.52 154.89 12.43 157.23 12.43C159.57 12.43 161.48 10.52 161.48 8.18C161.48 5.84 159.58 3.93 157.23 3.93ZM157.23 12.34C154.94 12.34 153.07 10.47 153.07 8.18C153.07 5.89 154.94 4.02 157.23 4.02C159.52 4.02 161.39 5.89 161.39 8.18C161.39 10.47 159.53 12.34 157.23 12.34ZM157.23 4.3C155.09 4.3 153.35 6.04 153.35 8.18C153.35 10.32 155.09 12.06 157.23 12.06C159.37 12.06 161.11 10.32 161.11 8.18C161.11 6.04 159.37 4.3 157.23 4.3Z" fill="#1C1C1C"/>
</svg>
