<svg width="763" height="1512" viewBox="0 0 763 1512" fill="none" xmlns="http://www.w3.org/2000/svg">
<path d="M734 1H29V39H72V31.25V23.5H109V39H159.5V23.5H188V39H236.5V23.5H289V39H363V23.5H399.5V39H461V23.5H492.5V39H521.5V23.5H545.5V39H561V23.5H582V39H662V23.5H691V39.5H734V1Z" fill="#D9D9D9" stroke="#AEAEAE" stroke-width="2"/>
<path d="M691 40.5H734V1441.5H691V40.5Z" fill="#D9D9D9" stroke="#AEAEAE" stroke-width="2"/>
<line x1="710" y1="1419" x2="714" y2="1419" stroke="#AEAEAE" stroke-width="4"/>
<line x1="707" y1="1409" x2="718" y2="1409" stroke="#AEAEAE" stroke-width="4"/>
<line x1="710" y1="1347" x2="714" y2="1347" stroke="#AEAEAE" stroke-width="4"/>
<line x1="707" y1="1337" x2="718" y2="1337" stroke="#AEAEAE" stroke-width="4"/>
<line x1="710" y1="1383" x2="714" y2="1383" stroke="#AEAEAE" stroke-width="4"/>
<line x1="707" y1="1373" x2="718" y2="1373" stroke="#AEAEAE" stroke-width="4"/>
<line x1="710" y1="1311" x2="714" y2="1311" stroke="#AEAEAE" stroke-width="4"/>
<line x1="707" y1="1301" x2="718" y2="1301" stroke="#AEAEAE" stroke-width="4"/>
<line x1="710" y1="1401" x2="714" y2="1401" stroke="#AEAEAE" stroke-width="4"/>
<line x1="707" y1="1391" x2="718" y2="1391" stroke="#AEAEAE" stroke-width="4"/>
<line x1="710" y1="1329" x2="714" y2="1329" stroke="#AEAEAE" stroke-width="4"/>
<line x1="707" y1="1319" x2="718" y2="1319" stroke="#AEAEAE" stroke-width="4"/>
<line x1="710" y1="1365" x2="714" y2="1365" stroke="#AEAEAE" stroke-width="4"/>
<line x1="707" y1="1355" x2="718" y2="1355" stroke="#AEAEAE" stroke-width="4"/>
<line x1="710" y1="1293" x2="714" y2="1293" stroke="#AEAEAE" stroke-width="4"/>
<line x1="707" y1="1283" x2="718" y2="1283" stroke="#AEAEAE" stroke-width="4"/>
<line x1="710" y1="1131" x2="714" y2="1131" stroke="#AEAEAE" stroke-width="4"/>
<line x1="707" y1="1121" x2="718" y2="1121" stroke="#AEAEAE" stroke-width="4"/>
<line x1="710" y1="1059" x2="714" y2="1059" stroke="#AEAEAE" stroke-width="4"/>
<line x1="707" y1="1049" x2="718" y2="1049" stroke="#AEAEAE" stroke-width="4"/>
<line x1="710" y1="1095" x2="714" y2="1095" stroke="#AEAEAE" stroke-width="4"/>
<line x1="707" y1="1085" x2="718" y2="1085" stroke="#AEAEAE" stroke-width="4"/>
<line x1="710" y1="1023" x2="714" y2="1023" stroke="#AEAEAE" stroke-width="4"/>
<line x1="707" y1="1013" x2="718" y2="1013" stroke="#AEAEAE" stroke-width="4"/>
<line x1="710" y1="1113" x2="714" y2="1113" stroke="#AEAEAE" stroke-width="4"/>
<line x1="707" y1="1103" x2="718" y2="1103" stroke="#AEAEAE" stroke-width="4"/>
<line x1="710" y1="1041" x2="714" y2="1041" stroke="#AEAEAE" stroke-width="4"/>
<line x1="707" y1="1031" x2="718" y2="1031" stroke="#AEAEAE" stroke-width="4"/>
<line x1="710" y1="1077" x2="714" y2="1077" stroke="#AEAEAE" stroke-width="4"/>
<line x1="707" y1="1067" x2="718" y2="1067" stroke="#AEAEAE" stroke-width="4"/>
<line x1="710" y1="1005" x2="714" y2="1005" stroke="#AEAEAE" stroke-width="4"/>
<line x1="707" y1="995" x2="718" y2="995" stroke="#AEAEAE" stroke-width="4"/>
<line x1="710" y1="843" x2="714" y2="843" stroke="#AEAEAE" stroke-width="4"/>
<line x1="707" y1="833" x2="718" y2="833" stroke="#AEAEAE" stroke-width="4"/>
<line x1="710" y1="771" x2="714" y2="771" stroke="#AEAEAE" stroke-width="4"/>
<line x1="707" y1="761" x2="718" y2="761" stroke="#AEAEAE" stroke-width="4"/>
<line x1="710" y1="807" x2="714" y2="807" stroke="#AEAEAE" stroke-width="4"/>
<line x1="707" y1="797" x2="718" y2="797" stroke="#AEAEAE" stroke-width="4"/>
<line x1="710" y1="735" x2="714" y2="735" stroke="#AEAEAE" stroke-width="4"/>
<line x1="707" y1="725" x2="718" y2="725" stroke="#AEAEAE" stroke-width="4"/>
<line x1="710" y1="825" x2="714" y2="825" stroke="#AEAEAE" stroke-width="4"/>
<line x1="707" y1="815" x2="718" y2="815" stroke="#AEAEAE" stroke-width="4"/>
<line x1="710" y1="753" x2="714" y2="753" stroke="#AEAEAE" stroke-width="4"/>
<line x1="707" y1="743" x2="718" y2="743" stroke="#AEAEAE" stroke-width="4"/>
<line x1="710" y1="789" x2="714" y2="789" stroke="#AEAEAE" stroke-width="4"/>
<line x1="707" y1="779" x2="718" y2="779" stroke="#AEAEAE" stroke-width="4"/>
<line x1="710" y1="717" x2="714" y2="717" stroke="#AEAEAE" stroke-width="4"/>
<line x1="707" y1="707" x2="718" y2="707" stroke="#AEAEAE" stroke-width="4"/>
<line x1="710" y1="555" x2="714" y2="555" stroke="#AEAEAE" stroke-width="4"/>
<line x1="707" y1="545" x2="718" y2="545" stroke="#AEAEAE" stroke-width="4"/>
<line x1="710" y1="483" x2="714" y2="483" stroke="#AEAEAE" stroke-width="4"/>
<line x1="707" y1="473" x2="718" y2="473" stroke="#AEAEAE" stroke-width="4"/>
<line x1="710" y1="519" x2="714" y2="519" stroke="#AEAEAE" stroke-width="4"/>
<line x1="707" y1="509" x2="718" y2="509" stroke="#AEAEAE" stroke-width="4"/>
<line x1="710" y1="447" x2="714" y2="447" stroke="#AEAEAE" stroke-width="4"/>
<line x1="707" y1="437" x2="718" y2="437" stroke="#AEAEAE" stroke-width="4"/>
<line x1="710" y1="537" x2="714" y2="537" stroke="#AEAEAE" stroke-width="4"/>
<line x1="707" y1="527" x2="718" y2="527" stroke="#AEAEAE" stroke-width="4"/>
<line x1="710" y1="465" x2="714" y2="465" stroke="#AEAEAE" stroke-width="4"/>
<line x1="707" y1="455" x2="718" y2="455" stroke="#AEAEAE" stroke-width="4"/>
<line x1="710" y1="501" x2="714" y2="501" stroke="#AEAEAE" stroke-width="4"/>
<line x1="707" y1="491" x2="718" y2="491" stroke="#AEAEAE" stroke-width="4"/>
<line x1="710" y1="429" x2="714" y2="429" stroke="#AEAEAE" stroke-width="4"/>
<line x1="707" y1="419" x2="718" y2="419" stroke="#AEAEAE" stroke-width="4"/>
<line x1="710" y1="1275" x2="714" y2="1275" stroke="#AEAEAE" stroke-width="4"/>
<line x1="707" y1="1265" x2="718" y2="1265" stroke="#AEAEAE" stroke-width="4"/>
<line x1="710" y1="1203" x2="714" y2="1203" stroke="#AEAEAE" stroke-width="4"/>
<line x1="707" y1="1193" x2="718" y2="1193" stroke="#AEAEAE" stroke-width="4"/>
<line x1="710" y1="1239" x2="714" y2="1239" stroke="#AEAEAE" stroke-width="4"/>
<line x1="707" y1="1229" x2="718" y2="1229" stroke="#AEAEAE" stroke-width="4"/>
<line x1="710" y1="1167" x2="714" y2="1167" stroke="#AEAEAE" stroke-width="4"/>
<line x1="707" y1="1157" x2="718" y2="1157" stroke="#AEAEAE" stroke-width="4"/>
<line x1="710" y1="1257" x2="714" y2="1257" stroke="#AEAEAE" stroke-width="4"/>
<line x1="707" y1="1247" x2="718" y2="1247" stroke="#AEAEAE" stroke-width="4"/>
<line x1="710" y1="1185" x2="714" y2="1185" stroke="#AEAEAE" stroke-width="4"/>
<line x1="707" y1="1175" x2="718" y2="1175" stroke="#AEAEAE" stroke-width="4"/>
<line x1="710" y1="1221" x2="714" y2="1221" stroke="#AEAEAE" stroke-width="4"/>
<line x1="707" y1="1211" x2="718" y2="1211" stroke="#AEAEAE" stroke-width="4"/>
<line x1="710" y1="1149" x2="714" y2="1149" stroke="#AEAEAE" stroke-width="4"/>
<line x1="707" y1="1139" x2="718" y2="1139" stroke="#AEAEAE" stroke-width="4"/>
<line x1="710" y1="987" x2="714" y2="987" stroke="#AEAEAE" stroke-width="4"/>
<line x1="707" y1="977" x2="718" y2="977" stroke="#AEAEAE" stroke-width="4"/>
<line x1="710" y1="915" x2="714" y2="915" stroke="#AEAEAE" stroke-width="4"/>
<line x1="707" y1="905" x2="718" y2="905" stroke="#AEAEAE" stroke-width="4"/>
<line x1="710" y1="951" x2="714" y2="951" stroke="#AEAEAE" stroke-width="4"/>
<line x1="707" y1="941" x2="718" y2="941" stroke="#AEAEAE" stroke-width="4"/>
<line x1="710" y1="879" x2="714" y2="879" stroke="#AEAEAE" stroke-width="4"/>
<line x1="707" y1="869" x2="718" y2="869" stroke="#AEAEAE" stroke-width="4"/>
<line x1="710" y1="969" x2="714" y2="969" stroke="#AEAEAE" stroke-width="4"/>
<line x1="707" y1="959" x2="718" y2="959" stroke="#AEAEAE" stroke-width="4"/>
<line x1="710" y1="897" x2="714" y2="897" stroke="#AEAEAE" stroke-width="4"/>
<line x1="707" y1="887" x2="718" y2="887" stroke="#AEAEAE" stroke-width="4"/>
<line x1="710" y1="933" x2="714" y2="933" stroke="#AEAEAE" stroke-width="4"/>
<line x1="707" y1="923" x2="718" y2="923" stroke="#AEAEAE" stroke-width="4"/>
<line x1="710" y1="861" x2="714" y2="861" stroke="#AEAEAE" stroke-width="4"/>
<line x1="707" y1="851" x2="718" y2="851" stroke="#AEAEAE" stroke-width="4"/>
<line x1="710" y1="699" x2="714" y2="699" stroke="#AEAEAE" stroke-width="4"/>
<line x1="707" y1="689" x2="718" y2="689" stroke="#AEAEAE" stroke-width="4"/>
<line x1="710" y1="627" x2="714" y2="627" stroke="#AEAEAE" stroke-width="4"/>
<line x1="707" y1="617" x2="718" y2="617" stroke="#AEAEAE" stroke-width="4"/>
<line x1="710" y1="663" x2="714" y2="663" stroke="#AEAEAE" stroke-width="4"/>
<line x1="707" y1="653" x2="718" y2="653" stroke="#AEAEAE" stroke-width="4"/>
<line x1="710" y1="591" x2="714" y2="591" stroke="#AEAEAE" stroke-width="4"/>
<line x1="707" y1="581" x2="718" y2="581" stroke="#AEAEAE" stroke-width="4"/>
<line x1="710" y1="681" x2="714" y2="681" stroke="#AEAEAE" stroke-width="4"/>
<line x1="707" y1="671" x2="718" y2="671" stroke="#AEAEAE" stroke-width="4"/>
<line x1="710" y1="609" x2="714" y2="609" stroke="#AEAEAE" stroke-width="4"/>
<line x1="707" y1="599" x2="718" y2="599" stroke="#AEAEAE" stroke-width="4"/>
<line x1="710" y1="645" x2="714" y2="645" stroke="#AEAEAE" stroke-width="4"/>
<line x1="707" y1="635" x2="718" y2="635" stroke="#AEAEAE" stroke-width="4"/>
<line x1="710" y1="573" x2="714" y2="573" stroke="#AEAEAE" stroke-width="4"/>
<line x1="707" y1="563" x2="718" y2="563" stroke="#AEAEAE" stroke-width="4"/>
<line x1="710" y1="411" x2="714" y2="411" stroke="#AEAEAE" stroke-width="4"/>
<line x1="707" y1="401" x2="718" y2="401" stroke="#AEAEAE" stroke-width="4"/>
<line x1="710" y1="339" x2="714" y2="339" stroke="#AEAEAE" stroke-width="4"/>
<line x1="707" y1="329" x2="718" y2="329" stroke="#AEAEAE" stroke-width="4"/>
<line x1="710" y1="375" x2="714" y2="375" stroke="#AEAEAE" stroke-width="4"/>
<line x1="707" y1="365" x2="718" y2="365" stroke="#AEAEAE" stroke-width="4"/>
<line x1="710" y1="303" x2="714" y2="303" stroke="#AEAEAE" stroke-width="4"/>
<line x1="707" y1="293" x2="718" y2="293" stroke="#AEAEAE" stroke-width="4"/>
<line x1="710" y1="393" x2="714" y2="393" stroke="#AEAEAE" stroke-width="4"/>
<line x1="707" y1="383" x2="718" y2="383" stroke="#AEAEAE" stroke-width="4"/>
<line x1="710" y1="321" x2="714" y2="321" stroke="#AEAEAE" stroke-width="4"/>
<line x1="707" y1="311" x2="718" y2="311" stroke="#AEAEAE" stroke-width="4"/>
<line x1="710" y1="357" x2="714" y2="357" stroke="#AEAEAE" stroke-width="4"/>
<line x1="707" y1="347" x2="718" y2="347" stroke="#AEAEAE" stroke-width="4"/>
<line x1="710" y1="285" x2="714" y2="285" stroke="#AEAEAE" stroke-width="4"/>
<line x1="707" y1="275" x2="718" y2="275" stroke="#AEAEAE" stroke-width="4"/>
<line x1="710" y1="267" x2="714" y2="267" stroke="#AEAEAE" stroke-width="4"/>
<line x1="707" y1="257" x2="718" y2="257" stroke="#AEAEAE" stroke-width="4"/>
<line x1="710" y1="195" x2="714" y2="195" stroke="#AEAEAE" stroke-width="4"/>
<line x1="707" y1="185" x2="718" y2="185" stroke="#AEAEAE" stroke-width="4"/>
<line x1="710" y1="231" x2="714" y2="231" stroke="#AEAEAE" stroke-width="4"/>
<line x1="707" y1="221" x2="718" y2="221" stroke="#AEAEAE" stroke-width="4"/>
<line x1="710" y1="159" x2="714" y2="159" stroke="#AEAEAE" stroke-width="4"/>
<line x1="707" y1="149" x2="718" y2="149" stroke="#AEAEAE" stroke-width="4"/>
<line x1="710" y1="123" x2="714" y2="123" stroke="#AEAEAE" stroke-width="4"/>
<line x1="707" y1="113" x2="718" y2="113" stroke="#AEAEAE" stroke-width="4"/>
<line x1="710" y1="87" x2="714" y2="87" stroke="#AEAEAE" stroke-width="4"/>
<line x1="707" y1="77" x2="718" y2="77" stroke="#AEAEAE" stroke-width="4"/>
<line x1="710" y1="249" x2="714" y2="249" stroke="#AEAEAE" stroke-width="4"/>
<line x1="707" y1="239" x2="718" y2="239" stroke="#AEAEAE" stroke-width="4"/>
<line x1="710" y1="177" x2="714" y2="177" stroke="#AEAEAE" stroke-width="4"/>
<line x1="707" y1="167" x2="718" y2="167" stroke="#AEAEAE" stroke-width="4"/>
<line x1="710" y1="213" x2="714" y2="213" stroke="#AEAEAE" stroke-width="4"/>
<line x1="707" y1="203" x2="718" y2="203" stroke="#AEAEAE" stroke-width="4"/>
<line x1="710" y1="141" x2="714" y2="141" stroke="#AEAEAE" stroke-width="4"/>
<line x1="707" y1="131" x2="718" y2="131" stroke="#AEAEAE" stroke-width="4"/>
<line x1="710" y1="105" x2="714" y2="105" stroke="#AEAEAE" stroke-width="4"/>
<line x1="707" y1="95" x2="718" y2="95" stroke="#AEAEAE" stroke-width="4"/>
<line x1="710" y1="69" x2="714" y2="69" stroke="#AEAEAE" stroke-width="4"/>
<line x1="710" y1="50" x2="714" y2="50" stroke="#AEAEAE" stroke-width="4"/>
<line x1="707" y1="59" x2="718" y2="59" stroke="#AEAEAE" stroke-width="4"/>
<path d="M29 40.5H72V1441.5H29V40.5Z" fill="#D9D9D9" stroke="#AEAEAE" stroke-width="2"/>
<line x1="48" y1="1419" x2="52" y2="1419" stroke="#AEAEAE" stroke-width="4"/>
<line x1="45" y1="1409" x2="56" y2="1409" stroke="#AEAEAE" stroke-width="4"/>
<line x1="48" y1="1347" x2="52" y2="1347" stroke="#AEAEAE" stroke-width="4"/>
<line x1="45" y1="1337" x2="56" y2="1337" stroke="#AEAEAE" stroke-width="4"/>
<line x1="48" y1="1383" x2="52" y2="1383" stroke="#AEAEAE" stroke-width="4"/>
<line x1="45" y1="1373" x2="56" y2="1373" stroke="#AEAEAE" stroke-width="4"/>
<line x1="48" y1="1311" x2="52" y2="1311" stroke="#AEAEAE" stroke-width="4"/>
<line x1="45" y1="1301" x2="56" y2="1301" stroke="#AEAEAE" stroke-width="4"/>
<line x1="48" y1="1401" x2="52" y2="1401" stroke="#AEAEAE" stroke-width="4"/>
<line x1="45" y1="1391" x2="56" y2="1391" stroke="#AEAEAE" stroke-width="4"/>
<line x1="48" y1="1329" x2="52" y2="1329" stroke="#AEAEAE" stroke-width="4"/>
<line x1="45" y1="1319" x2="56" y2="1319" stroke="#AEAEAE" stroke-width="4"/>
<line x1="48" y1="1365" x2="52" y2="1365" stroke="#AEAEAE" stroke-width="4"/>
<line x1="45" y1="1355" x2="56" y2="1355" stroke="#AEAEAE" stroke-width="4"/>
<line x1="48" y1="1293" x2="52" y2="1293" stroke="#AEAEAE" stroke-width="4"/>
<line x1="45" y1="1283" x2="56" y2="1283" stroke="#AEAEAE" stroke-width="4"/>
<line x1="48" y1="1131" x2="52" y2="1131" stroke="#AEAEAE" stroke-width="4"/>
<line x1="45" y1="1121" x2="56" y2="1121" stroke="#AEAEAE" stroke-width="4"/>
<line x1="48" y1="1059" x2="52" y2="1059" stroke="#AEAEAE" stroke-width="4"/>
<line x1="45" y1="1049" x2="56" y2="1049" stroke="#AEAEAE" stroke-width="4"/>
<line x1="48" y1="1095" x2="52" y2="1095" stroke="#AEAEAE" stroke-width="4"/>
<line x1="45" y1="1085" x2="56" y2="1085" stroke="#AEAEAE" stroke-width="4"/>
<line x1="48" y1="1023" x2="52" y2="1023" stroke="#AEAEAE" stroke-width="4"/>
<line x1="45" y1="1013" x2="56" y2="1013" stroke="#AEAEAE" stroke-width="4"/>
<line x1="48" y1="1113" x2="52" y2="1113" stroke="#AEAEAE" stroke-width="4"/>
<line x1="45" y1="1103" x2="56" y2="1103" stroke="#AEAEAE" stroke-width="4"/>
<line x1="48" y1="1041" x2="52" y2="1041" stroke="#AEAEAE" stroke-width="4"/>
<line x1="45" y1="1031" x2="56" y2="1031" stroke="#AEAEAE" stroke-width="4"/>
<line x1="48" y1="1077" x2="52" y2="1077" stroke="#AEAEAE" stroke-width="4"/>
<line x1="45" y1="1067" x2="56" y2="1067" stroke="#AEAEAE" stroke-width="4"/>
<line x1="48" y1="1005" x2="52" y2="1005" stroke="#AEAEAE" stroke-width="4"/>
<line x1="45" y1="995" x2="56" y2="995" stroke="#AEAEAE" stroke-width="4"/>
<line x1="48" y1="843" x2="52" y2="843" stroke="#AEAEAE" stroke-width="4"/>
<line x1="45" y1="833" x2="56" y2="833" stroke="#AEAEAE" stroke-width="4"/>
<line x1="48" y1="771" x2="52" y2="771" stroke="#AEAEAE" stroke-width="4"/>
<line x1="45" y1="761" x2="56" y2="761" stroke="#AEAEAE" stroke-width="4"/>
<line x1="48" y1="807" x2="52" y2="807" stroke="#AEAEAE" stroke-width="4"/>
<line x1="45" y1="797" x2="56" y2="797" stroke="#AEAEAE" stroke-width="4"/>
<line x1="48" y1="735" x2="52" y2="735" stroke="#AEAEAE" stroke-width="4"/>
<line x1="45" y1="725" x2="56" y2="725" stroke="#AEAEAE" stroke-width="4"/>
<line x1="48" y1="825" x2="52" y2="825" stroke="#AEAEAE" stroke-width="4"/>
<line x1="45" y1="815" x2="56" y2="815" stroke="#AEAEAE" stroke-width="4"/>
<line x1="48" y1="753" x2="52" y2="753" stroke="#AEAEAE" stroke-width="4"/>
<line x1="45" y1="743" x2="56" y2="743" stroke="#AEAEAE" stroke-width="4"/>
<line x1="48" y1="789" x2="52" y2="789" stroke="#AEAEAE" stroke-width="4"/>
<line x1="45" y1="779" x2="56" y2="779" stroke="#AEAEAE" stroke-width="4"/>
<line x1="48" y1="717" x2="52" y2="717" stroke="#AEAEAE" stroke-width="4"/>
<line x1="45" y1="707" x2="56" y2="707" stroke="#AEAEAE" stroke-width="4"/>
<line x1="48" y1="555" x2="52" y2="555" stroke="#AEAEAE" stroke-width="4"/>
<line x1="45" y1="545" x2="56" y2="545" stroke="#AEAEAE" stroke-width="4"/>
<line x1="48" y1="483" x2="52" y2="483" stroke="#AEAEAE" stroke-width="4"/>
<line x1="45" y1="473" x2="56" y2="473" stroke="#AEAEAE" stroke-width="4"/>
<line x1="48" y1="519" x2="52" y2="519" stroke="#AEAEAE" stroke-width="4"/>
<line x1="45" y1="509" x2="56" y2="509" stroke="#AEAEAE" stroke-width="4"/>
<line x1="48" y1="447" x2="52" y2="447" stroke="#AEAEAE" stroke-width="4"/>
<line x1="45" y1="437" x2="56" y2="437" stroke="#AEAEAE" stroke-width="4"/>
<line x1="48" y1="537" x2="52" y2="537" stroke="#AEAEAE" stroke-width="4"/>
<line x1="45" y1="527" x2="56" y2="527" stroke="#AEAEAE" stroke-width="4"/>
<line x1="48" y1="465" x2="52" y2="465" stroke="#AEAEAE" stroke-width="4"/>
<line x1="45" y1="455" x2="56" y2="455" stroke="#AEAEAE" stroke-width="4"/>
<line x1="48" y1="501" x2="52" y2="501" stroke="#AEAEAE" stroke-width="4"/>
<line x1="45" y1="491" x2="56" y2="491" stroke="#AEAEAE" stroke-width="4"/>
<line x1="48" y1="429" x2="52" y2="429" stroke="#AEAEAE" stroke-width="4"/>
<line x1="45" y1="419" x2="56" y2="419" stroke="#AEAEAE" stroke-width="4"/>
<line x1="48" y1="1275" x2="52" y2="1275" stroke="#AEAEAE" stroke-width="4"/>
<line x1="45" y1="1265" x2="56" y2="1265" stroke="#AEAEAE" stroke-width="4"/>
<line x1="48" y1="1203" x2="52" y2="1203" stroke="#AEAEAE" stroke-width="4"/>
<line x1="45" y1="1193" x2="56" y2="1193" stroke="#AEAEAE" stroke-width="4"/>
<line x1="48" y1="1239" x2="52" y2="1239" stroke="#AEAEAE" stroke-width="4"/>
<line x1="45" y1="1229" x2="56" y2="1229" stroke="#AEAEAE" stroke-width="4"/>
<line x1="48" y1="1167" x2="52" y2="1167" stroke="#AEAEAE" stroke-width="4"/>
<line x1="45" y1="1157" x2="56" y2="1157" stroke="#AEAEAE" stroke-width="4"/>
<line x1="48" y1="1257" x2="52" y2="1257" stroke="#AEAEAE" stroke-width="4"/>
<line x1="45" y1="1247" x2="56" y2="1247" stroke="#AEAEAE" stroke-width="4"/>
<line x1="48" y1="1185" x2="52" y2="1185" stroke="#AEAEAE" stroke-width="4"/>
<line x1="45" y1="1175" x2="56" y2="1175" stroke="#AEAEAE" stroke-width="4"/>
<line x1="48" y1="1221" x2="52" y2="1221" stroke="#AEAEAE" stroke-width="4"/>
<line x1="45" y1="1211" x2="56" y2="1211" stroke="#AEAEAE" stroke-width="4"/>
<line x1="48" y1="1149" x2="52" y2="1149" stroke="#AEAEAE" stroke-width="4"/>
<line x1="45" y1="1139" x2="56" y2="1139" stroke="#AEAEAE" stroke-width="4"/>
<line x1="48" y1="987" x2="52" y2="987" stroke="#AEAEAE" stroke-width="4"/>
<line x1="45" y1="977" x2="56" y2="977" stroke="#AEAEAE" stroke-width="4"/>
<line x1="48" y1="915" x2="52" y2="915" stroke="#AEAEAE" stroke-width="4"/>
<line x1="45" y1="905" x2="56" y2="905" stroke="#AEAEAE" stroke-width="4"/>
<line x1="48" y1="951" x2="52" y2="951" stroke="#AEAEAE" stroke-width="4"/>
<line x1="45" y1="941" x2="56" y2="941" stroke="#AEAEAE" stroke-width="4"/>
<line x1="48" y1="879" x2="52" y2="879" stroke="#AEAEAE" stroke-width="4"/>
<line x1="45" y1="869" x2="56" y2="869" stroke="#AEAEAE" stroke-width="4"/>
<line x1="48" y1="969" x2="52" y2="969" stroke="#AEAEAE" stroke-width="4"/>
<line x1="45" y1="959" x2="56" y2="959" stroke="#AEAEAE" stroke-width="4"/>
<line x1="48" y1="897" x2="52" y2="897" stroke="#AEAEAE" stroke-width="4"/>
<line x1="45" y1="887" x2="56" y2="887" stroke="#AEAEAE" stroke-width="4"/>
<line x1="48" y1="933" x2="52" y2="933" stroke="#AEAEAE" stroke-width="4"/>
<line x1="45" y1="923" x2="56" y2="923" stroke="#AEAEAE" stroke-width="4"/>
<line x1="48" y1="861" x2="52" y2="861" stroke="#AEAEAE" stroke-width="4"/>
<line x1="45" y1="851" x2="56" y2="851" stroke="#AEAEAE" stroke-width="4"/>
<line x1="48" y1="699" x2="52" y2="699" stroke="#AEAEAE" stroke-width="4"/>
<line x1="45" y1="689" x2="56" y2="689" stroke="#AEAEAE" stroke-width="4"/>
<line x1="48" y1="627" x2="52" y2="627" stroke="#AEAEAE" stroke-width="4"/>
<line x1="45" y1="617" x2="56" y2="617" stroke="#AEAEAE" stroke-width="4"/>
<line x1="48" y1="663" x2="52" y2="663" stroke="#AEAEAE" stroke-width="4"/>
<line x1="45" y1="653" x2="56" y2="653" stroke="#AEAEAE" stroke-width="4"/>
<line x1="48" y1="591" x2="52" y2="591" stroke="#AEAEAE" stroke-width="4"/>
<line x1="45" y1="581" x2="56" y2="581" stroke="#AEAEAE" stroke-width="4"/>
<line x1="48" y1="681" x2="52" y2="681" stroke="#AEAEAE" stroke-width="4"/>
<line x1="45" y1="671" x2="56" y2="671" stroke="#AEAEAE" stroke-width="4"/>
<line x1="48" y1="609" x2="52" y2="609" stroke="#AEAEAE" stroke-width="4"/>
<line x1="45" y1="599" x2="56" y2="599" stroke="#AEAEAE" stroke-width="4"/>
<line x1="48" y1="645" x2="52" y2="645" stroke="#AEAEAE" stroke-width="4"/>
<line x1="45" y1="635" x2="56" y2="635" stroke="#AEAEAE" stroke-width="4"/>
<line x1="48" y1="573" x2="52" y2="573" stroke="#AEAEAE" stroke-width="4"/>
<line x1="45" y1="563" x2="56" y2="563" stroke="#AEAEAE" stroke-width="4"/>
<line x1="48" y1="411" x2="52" y2="411" stroke="#AEAEAE" stroke-width="4"/>
<line x1="45" y1="401" x2="56" y2="401" stroke="#AEAEAE" stroke-width="4"/>
<line x1="48" y1="339" x2="52" y2="339" stroke="#AEAEAE" stroke-width="4"/>
<line x1="45" y1="329" x2="56" y2="329" stroke="#AEAEAE" stroke-width="4"/>
<line x1="48" y1="375" x2="52" y2="375" stroke="#AEAEAE" stroke-width="4"/>
<line x1="45" y1="365" x2="56" y2="365" stroke="#AEAEAE" stroke-width="4"/>
<line x1="48" y1="303" x2="52" y2="303" stroke="#AEAEAE" stroke-width="4"/>
<line x1="45" y1="293" x2="56" y2="293" stroke="#AEAEAE" stroke-width="4"/>
<line x1="48" y1="393" x2="52" y2="393" stroke="#AEAEAE" stroke-width="4"/>
<line x1="45" y1="383" x2="56" y2="383" stroke="#AEAEAE" stroke-width="4"/>
<line x1="48" y1="321" x2="52" y2="321" stroke="#AEAEAE" stroke-width="4"/>
<line x1="45" y1="311" x2="56" y2="311" stroke="#AEAEAE" stroke-width="4"/>
<line x1="48" y1="357" x2="52" y2="357" stroke="#AEAEAE" stroke-width="4"/>
<line x1="45" y1="347" x2="56" y2="347" stroke="#AEAEAE" stroke-width="4"/>
<line x1="48" y1="285" x2="52" y2="285" stroke="#AEAEAE" stroke-width="4"/>
<line x1="45" y1="275" x2="56" y2="275" stroke="#AEAEAE" stroke-width="4"/>
<line x1="48" y1="267" x2="52" y2="267" stroke="#AEAEAE" stroke-width="4"/>
<line x1="45" y1="257" x2="56" y2="257" stroke="#AEAEAE" stroke-width="4"/>
<line x1="48" y1="195" x2="52" y2="195" stroke="#AEAEAE" stroke-width="4"/>
<line x1="45" y1="185" x2="56" y2="185" stroke="#AEAEAE" stroke-width="4"/>
<line x1="48" y1="231" x2="52" y2="231" stroke="#AEAEAE" stroke-width="4"/>
<line x1="45" y1="221" x2="56" y2="221" stroke="#AEAEAE" stroke-width="4"/>
<line x1="48" y1="159" x2="52" y2="159" stroke="#AEAEAE" stroke-width="4"/>
<line x1="45" y1="149" x2="56" y2="149" stroke="#AEAEAE" stroke-width="4"/>
<line x1="48" y1="123" x2="52" y2="123" stroke="#AEAEAE" stroke-width="4"/>
<line x1="45" y1="113" x2="56" y2="113" stroke="#AEAEAE" stroke-width="4"/>
<line x1="48" y1="87" x2="52" y2="87" stroke="#AEAEAE" stroke-width="4"/>
<line x1="45" y1="77" x2="56" y2="77" stroke="#AEAEAE" stroke-width="4"/>
<line x1="48" y1="249" x2="52" y2="249" stroke="#AEAEAE" stroke-width="4"/>
<line x1="45" y1="239" x2="56" y2="239" stroke="#AEAEAE" stroke-width="4"/>
<line x1="48" y1="177" x2="52" y2="177" stroke="#AEAEAE" stroke-width="4"/>
<line x1="45" y1="167" x2="56" y2="167" stroke="#AEAEAE" stroke-width="4"/>
<line x1="48" y1="213" x2="52" y2="213" stroke="#AEAEAE" stroke-width="4"/>
<line x1="45" y1="203" x2="56" y2="203" stroke="#AEAEAE" stroke-width="4"/>
<line x1="48" y1="141" x2="52" y2="141" stroke="#AEAEAE" stroke-width="4"/>
<line x1="45" y1="131" x2="56" y2="131" stroke="#AEAEAE" stroke-width="4"/>
<line x1="48" y1="105" x2="52" y2="105" stroke="#AEAEAE" stroke-width="4"/>
<line x1="45" y1="95" x2="56" y2="95" stroke="#AEAEAE" stroke-width="4"/>
<line x1="48" y1="69" x2="52" y2="69" stroke="#AEAEAE" stroke-width="4"/>
<line x1="48" y1="50" x2="52" y2="50" stroke="#AEAEAE" stroke-width="4"/>
<line x1="45" y1="59" x2="56" y2="59" stroke="#AEAEAE" stroke-width="4"/>
<path d="M691 1441.5V1405H72V1441.5H691Z" fill="#D9D9D9" stroke="#AEAEAE" stroke-width="2"/>
<path d="M691 1441.5H734V1240.5L761 1510.5H717.5L691 1441.5Z" fill="#D9D9D9"/>
<path d="M734 1441.5H691L717.5 1510.5H761M734 1441.5V1240.5L761 1510.5M734 1441.5L761 1510.5" stroke="#AEAEAE" stroke-width="2"/>
<path d="M72 1441.5H29V1240.5L2 1510.5H45.5L72 1441.5Z" fill="#D9D9D9"/>
<path d="M29 1441.5H72L45.5 1510.5H2M29 1441.5V1240.5L2 1510.5M29 1441.5L2 1510.5" stroke="#AEAEAE" stroke-width="2"/>
</svg>
