<svg width="274" height="58" viewBox="0 0 274 58" fill="none" xmlns="http://www.w3.org/2000/svg">
<path d="M18.0489 4.14654H14.9342C13.9727 4.14654 13.0441 4.34564 12.1445 4.74574C11.2429 5.14585 10.442 5.78371 9.74554 6.6632C9.0452 7.54269 8.48802 8.66958 8.06242 10.0497C7.64455 11.4259 7.43561 13.0728 7.43561 14.9902C7.43561 16.8652 7.66777 18.456 8.12625 19.7529C8.58671 21.0519 9.1961 22.1208 9.95641 22.9616C10.7167 23.7986 11.5757 24.4073 12.5353 24.7862C13.4929 25.1671 14.4931 25.3564 15.5339 25.3564H18.0489V4.14654ZM6.05428 46.3905H0.598663L10.3143 28.4724C7.47622 27.1155 5.44681 25.3082 4.228 23.0505C3.00921 20.7948 2.39786 18.108 2.39786 14.9902C2.39786 12.5934 2.73834 10.4788 3.4174 8.64058C4.09453 6.8043 5.01733 5.25798 6.17616 3.99771C7.33695 2.73744 8.68537 1.7903 10.2234 1.15051C11.7653 0.512643 13.3923 0.19371 15.1141 0.19371H22.7907V46.3905H18.0489V29.2533H14.9342L6.05428 46.3905Z" fill="#FF0000"/>
<path fill-rule="evenodd" clip-rule="evenodd" d="M70.2285 52.3823H65.9725V46.3325H52.7201V52.3823H48.4601V42.4356H50.3175C51.2789 40.638 52.0277 38.7013 52.5694 36.6233C53.1109 34.5455 53.5173 32.4482 53.7978 30.3317C54.0783 28.2151 54.2466 26.1179 54.3086 24.0401C54.3704 21.9621 54.3994 19.9847 54.3994 18.1059V15.4733H67.8336V42.4377H70.2325V52.3823H70.2285ZM90.9812 44.9523C89.9809 45.5128 88.8724 46 87.6535 46.4213C86.4349 46.8408 85.0612 47.0496 83.5444 47.0496C80.426 47.0496 77.9263 45.7546 76.0478 43.1566C74.1713 40.5608 73.229 36.9056 73.229 32.1912C73.229 29.9141 73.4227 27.7261 73.7998 25.6309C74.1811 23.5297 74.7595 21.6741 75.5411 20.0563C76.3206 18.4365 77.3093 17.1375 78.5087 16.1614C79.7082 15.1834 81.1456 14.6924 82.823 14.6924C85.3032 14.6924 87.3034 15.9333 88.8201 18.4094C90.3408 20.8835 91.1031 24.5407 91.1031 29.3749V32.0114H78.2068C78.2068 35.367 78.7757 37.9842 79.9151 39.859C81.0566 41.738 82.8441 42.6773 85.2837 42.6773C86.2027 42.6773 87.1527 42.5476 88.1314 42.2906C89.1125 42.0277 89.8822 41.7786 90.4414 41.5368L90.9831 44.9542L90.9812 44.9523ZM82.643 18.5293C81.9659 18.5293 81.3661 18.767 80.8437 19.2444C80.3254 19.7277 79.8861 20.3945 79.5283 21.2547C79.1665 22.1129 78.886 23.1219 78.6868 24.2797C78.4875 25.4395 78.3461 26.6958 78.2669 28.0567H86.1834V27.3994C86.1834 27.1985 86.1737 26.9781 86.1544 26.7385C86.1349 26.4988 86.1233 26.2397 86.1233 25.9594C85.9628 23.6011 85.5816 21.7727 84.982 20.4738C84.3822 19.1787 83.6046 18.5273 82.6449 18.5273L82.643 18.5293ZM63.0936 19.3063V42.4356H54.5195C55.3164 41.1174 55.9761 39.5595 56.4967 37.7619C57.0189 35.9642 57.4369 34.0564 57.7541 32.0404C58.0752 30.0224 58.2958 27.9657 58.4159 25.8666C58.5357 23.7693 58.5956 21.7824 58.5956 19.9055V19.3063H63.0936ZM45.7016 15.4714V46.3325H40.9616V31.59H33.8868V46.3304H29.0888V15.4694H33.8868V27.6333H40.9637V15.4714H45.7016ZM113.893 46.3325H108.553L101.177 31.1107L100.635 30.4535V46.3304H95.8371V15.4694H100.635V29.4909L101.177 28.8917L107.716 15.4694H112.811L105.257 29.371L113.893 46.3285V46.3325ZM120.068 30.9908C120.068 34.6246 120.629 37.4815 121.747 39.5595C122.869 41.6373 124.585 42.6752 126.905 42.6752C127.785 42.6752 128.685 42.5458 129.604 42.2887C130.525 42.0259 131.268 41.7765 131.825 41.535L132.305 44.9523C131.386 45.5128 130.356 46 129.217 46.4213C128.075 46.8408 126.787 47.0496 125.348 47.0496C122.272 47.0496 119.78 45.7738 117.88 43.2165C115.984 40.6594 115.032 36.9847 115.032 32.1912C115.032 29.5547 115.303 27.1579 115.845 25.0008C116.383 22.8435 117.112 21.0053 118.031 19.488C118.95 17.9726 120.051 16.7935 121.33 15.9546C122.606 15.1157 123.988 14.6982 125.47 14.6982C126.785 14.6982 127.977 14.876 129.037 15.2356C130.095 15.5951 131.045 16.0744 131.885 16.6737L129.424 20.8101C128.863 20.1684 128.234 19.631 127.534 19.1903C126.837 18.7515 126.127 18.5331 125.406 18.5331C124.568 18.5331 123.808 18.8907 123.129 19.6098C122.452 20.3288 121.891 21.2682 121.45 22.426C121.01 23.5858 120.67 24.9117 120.43 26.4118C120.19 27.9098 120.07 29.4366 120.07 30.9926L120.068 30.9908ZM153.015 39.1632H155.348L161.751 15.3728C162.227 13.579 162.647 11.8452 163.183 9.45418H163.425C163.305 11.6074 163.185 13.7588 163.185 15.7942V45.7409H166.056V2.99628H162.705L155.41 30.3161C155.108 31.3928 154.628 33.6641 154.39 35.2779H154.21C154.03 33.666 153.61 31.4548 153.313 30.3182L146.073 2.99628H142.603V45.739H145.234V15.7922C145.234 13.637 145.176 11.4857 145.056 9.45226H145.236C145.595 11.4238 146.075 13.3374 146.673 15.5506L153.011 39.1614L153.015 39.1632ZM178.741 44.067C181.554 44.067 183.529 41.3802 184.603 38.1485V29.8408H181.372C176.408 29.8408 174.015 32.1118 174.015 37.3715C174.015 41.6162 175.872 44.067 178.741 44.067ZM185.443 45.7409C185.203 44.9639 184.905 43.8273 184.727 41.676C183.29 44.5463 181.134 46.3401 178.143 46.3401C174.077 46.3401 171.264 43.1121 171.264 37.6111C171.264 31.155 174.795 27.8073 181.316 27.8073H184.605V24.0419C184.605 19.4377 182.872 17.4642 179.581 17.4642C177.008 17.4642 174.675 18.6626 173.239 20.754L172.461 18.0634C173.657 16.5093 176.17 15.0133 179.581 15.0133C184.547 15.0133 187.358 17.7638 187.358 23.7424V40.1819C187.358 42.2732 187.66 44.6083 188.016 45.7409H185.443ZM202.196 44.067C206.027 44.067 208.538 39.5247 208.538 30.0185C208.538 22.1264 206.385 17.4623 202.914 17.4623C200.221 17.4623 197.948 20.3327 196.633 23.5608V40.4158C197.828 42.8706 199.504 44.0631 202.196 44.0631V44.067ZM202.017 46.2803C199.745 46.2803 197.77 45.1437 196.634 43.6515V55.0673H193.822V15.6105H196.275L196.515 20.5723C197.83 17.702 200.045 15.0113 203.394 15.0113C208.42 15.0113 211.353 21.0498 211.353 29.7788C211.353 40.8352 207.643 46.2782 202.019 46.2782L202.017 46.2803ZM219.55 30.1403L230.02 45.739H233.135L222.481 29.599L232.412 15.6125H229.662L219.55 29.7807V15.6125H216.737V45.7409H219.548V30.1345L219.55 30.1403ZM250.782 40.6594L251.681 42.9323C251.681 42.9323 249.41 46.3401 244.622 46.3401C238.22 46.3401 235.287 40.5413 235.287 30.6757C235.287 20.8101 238.998 15.0113 244.083 15.0113C249.287 15.0113 252.64 20.4525 251.683 31.1513H238.043C238.159 39.4047 240.317 43.8893 244.684 43.8893C248.69 43.8893 250.787 40.6573 250.787 40.6573L250.782 40.6594ZM244.081 17.3482C240.909 17.3482 238.336 21.4112 238.099 28.9457H249.05C249.528 20.9319 247.132 17.3482 244.081 17.3482ZM271.604 17.9436V15.6105H254.85V17.9416H261.853V45.7372H264.663V17.9436H271.604Z" fill="white"/>
</svg>
