<svg width="118" height="25" viewBox="0 0 118 25" fill="none" xmlns="http://www.w3.org/2000/svg">
    <path d="M7.77288 1.7873H6.4315C6.01742 1.7873 5.61751 1.87312 5.23009 2.04558C4.84184 2.21804 4.49691 2.49298 4.19698 2.87207C3.89537 3.25116 3.65542 3.73689 3.47213 4.33176C3.29217 4.92497 3.20219 5.63482 3.20219 6.46131C3.20219 7.26947 3.30217 7.95516 3.49962 8.5142C3.69792 9.07408 3.96036 9.53482 4.28779 9.89724C4.61522 10.258 4.98514 10.5204 5.39839 10.6837C5.8108 10.8479 6.24154 10.9295 6.68978 10.9295H7.77288V1.78647V1.7873ZM2.60731 19.9959H0.257812L4.44192 12.2726C3.21968 11.6877 2.3457 10.9087 1.82081 9.93557C1.29593 8.96327 1.03265 7.80519 1.03265 6.46131C1.03265 5.42819 1.17928 4.51672 1.47172 3.72439C1.76333 2.93289 2.16074 2.26637 2.6598 1.72315C3.1597 1.17993 3.74041 0.771683 4.40277 0.495908C5.06679 0.220967 5.76748 0.0834961 6.50898 0.0834961H9.81495V19.9959H7.77288V12.6092H6.4315L2.60731 19.9959Z" fill="#FF0000"></path>
    <path fill-rule="evenodd" clip-rule="evenodd" d="M30.2444 22.5786H28.4115V19.9709H22.7043V22.5786H20.8697V18.2912H21.6696C22.0836 17.5164 22.4061 16.6816 22.6394 15.7859C22.8726 14.8903 23.0476 13.9863 23.1684 13.074C23.2892 12.1617 23.3617 11.2577 23.3884 10.3621C23.415 9.46643 23.4275 8.61411 23.4275 7.80429V6.66953H29.213V18.2921H30.2461V22.5786H30.2444ZM39.1817 19.376C38.7509 19.6176 38.2735 19.8276 37.7486 20.0092C37.2238 20.19 36.6322 20.28 35.979 20.28C34.636 20.28 33.5595 19.7218 32.7505 18.602C31.9424 17.4831 31.5366 15.9076 31.5366 13.8755C31.5366 12.894 31.62 11.9509 31.7824 11.0478C31.9466 10.1421 32.1957 9.34229 32.5323 8.64494C32.868 7.94676 33.2938 7.38687 33.8103 6.96613C34.3269 6.54455 34.9459 6.33293 35.6683 6.33293C36.7364 6.33293 37.5978 6.86782 38.251 7.93509C38.9059 9.00153 39.2342 10.5779 39.2342 12.6616V13.798H33.6803C33.6803 15.2444 33.9253 16.3725 34.416 17.1806C34.9076 17.9905 35.6774 18.3954 36.728 18.3954C37.1238 18.3954 37.5329 18.3395 37.9544 18.2287C38.3769 18.1154 38.7084 18.008 38.9492 17.9038L39.1825 19.3768L39.1817 19.376ZM35.5908 7.98675C35.2992 7.98675 35.0409 8.08923 34.8159 8.29502C34.5927 8.5033 34.4035 8.79074 34.2494 9.1615C34.0936 9.53142 33.9728 9.96633 33.887 10.4654C33.8012 10.9653 33.7403 11.5068 33.7062 12.0934H37.1155V11.8101C37.1155 11.7235 37.1113 11.6285 37.103 11.5252C37.0946 11.4219 37.0896 11.3102 37.0896 11.1894C37.0205 10.1729 36.8563 9.38478 36.5981 8.8249C36.3398 8.26669 36.0049 7.98591 35.5916 7.98591L35.5908 7.98675ZM27.1717 8.32168V18.2912H23.4792C23.8224 17.723 24.1065 17.0515 24.3307 16.2767C24.5556 15.5018 24.7356 14.6795 24.8722 13.8105C25.0105 12.9407 25.1055 12.0542 25.1572 11.1494C25.2088 10.2454 25.2346 9.38895 25.2346 8.57995V8.32168H27.1717ZM19.6817 6.66869V19.9709H17.6404V13.6164H14.5936V19.97H12.5273V6.66786H14.5936V11.9109H17.6413V6.66869H19.6817ZM49.0487 19.9709H46.7492L43.5724 13.4098L43.3391 13.1265V19.97H41.2729V6.66786H43.3391V12.7116L43.5724 12.4533L46.3885 6.66786H48.583L45.3295 12.6599L49.0487 19.9692V19.9709ZM51.7082 13.3581C51.7082 14.9244 51.9498 16.1558 52.4314 17.0515C52.9146 17.9471 53.6536 18.3945 54.6526 18.3945C55.0316 18.3945 55.4191 18.3387 55.8148 18.2279C56.2114 18.1146 56.5313 18.0071 56.7713 17.903L56.9779 19.376C56.5821 19.6176 56.1389 19.8276 55.6482 20.0092C55.1566 20.19 54.6017 20.28 53.9819 20.28C52.6572 20.28 51.584 19.7301 50.7659 18.6278C49.9494 17.5256 49.5395 15.9417 49.5395 13.8755C49.5395 12.7391 49.6561 11.706 49.8894 10.7762C50.121 9.84635 50.4351 9.05402 50.8309 8.39999C51.2266 7.7468 51.7007 7.23857 52.2514 6.87698C52.8013 6.51539 53.3962 6.33543 54.0344 6.33543C54.6009 6.33543 55.1141 6.41208 55.5707 6.56705C56.0264 6.72202 56.4355 6.92864 56.7971 7.18692L55.7373 8.96987C55.4957 8.69326 55.2249 8.46165 54.9233 8.27169C54.6234 8.08256 54.3176 7.98841 54.0069 7.98841C53.6461 7.98841 53.3187 8.14255 53.0262 8.45248C52.7346 8.76242 52.493 9.16733 52.3031 9.66639C52.1139 10.1663 51.9673 10.7378 51.864 11.3844C51.7607 12.0301 51.709 12.6882 51.709 13.3589L51.7082 13.3581ZM65.8968 16.8807H66.9016L69.6594 6.6262C69.8643 5.85303 70.0451 5.10569 70.2759 4.07508H70.3801C70.3284 5.00321 70.2767 5.93052 70.2767 6.80783V19.7159H71.5131V1.2915H70.0701L66.9283 13.0673C66.7983 13.5314 66.5917 14.5104 66.4892 15.206H66.4117C66.3342 14.5112 66.1534 13.5581 66.0251 13.0682L62.9075 1.2915H61.4128V19.7151H62.5459V6.807C62.5459 5.87803 62.5209 4.95073 62.4692 4.07425H62.5467C62.7017 4.92407 62.9083 5.74889 63.1658 6.70285L65.8952 16.8799L65.8968 16.8807ZM76.9761 18.9944C78.1876 18.9944 79.0382 17.8363 79.5006 16.4433V12.8624H78.1092C75.9714 12.8624 74.9408 13.8413 74.9408 16.1084C74.9408 17.938 75.7406 18.9944 76.9761 18.9944ZM79.8622 19.7159C79.7589 19.381 79.6306 18.8911 79.5539 17.9638C78.9349 19.201 78.0068 19.9742 76.7187 19.9742C74.9674 19.9742 73.756 18.5828 73.756 16.2117C73.756 13.4289 75.2765 11.9859 78.0851 11.9859H79.5014V10.3629C79.5014 8.37833 78.7549 7.52768 77.3377 7.52768C76.2296 7.52768 75.2249 8.04424 74.6067 8.94571L74.2717 7.78596C74.7866 7.1161 75.8689 6.47124 77.3377 6.47124C79.4765 6.47124 80.687 7.65682 80.687 10.2338V17.3198C80.687 18.2212 80.817 19.2277 80.9703 19.7159H79.8622ZM87.0773 18.9944C88.727 18.9944 89.8084 17.0365 89.8084 12.939C89.8084 9.53725 88.8811 7.52685 87.3864 7.52685C86.2267 7.52685 85.2477 8.76408 84.6812 10.1555V17.4206C85.1961 18.4787 85.9176 18.9927 87.0773 18.9927V18.9944ZM86.9999 19.9484C86.0217 19.9484 85.1711 19.4585 84.682 18.8153V23.7359H83.4706V6.72868H84.527L84.6304 8.86739C85.1969 7.63016 86.1509 6.4704 87.5931 6.4704C89.7576 6.4704 91.0207 9.07318 91.0207 12.8357C91.0207 17.6014 89.4227 19.9475 87.0007 19.9475L86.9999 19.9484ZM94.5508 12.9915L99.0598 19.7151H100.401L95.813 12.7582L100.09 6.72951H98.9056L94.5508 12.8365V6.72951H93.3393V19.7159H94.5499V12.989L94.5508 12.9915ZM108.001 17.5256L108.388 18.5053C108.388 18.5053 107.41 19.9742 105.348 19.9742C102.591 19.9742 101.328 17.4747 101.328 13.2223C101.328 8.96987 102.926 6.4704 105.116 6.4704C107.357 6.4704 108.801 8.81574 108.389 13.4273H102.515C102.565 16.9848 103.494 18.9178 105.375 18.9178C107.1 18.9178 108.002 17.5264 108.003 17.5247L108.001 17.5256ZM105.115 7.47769C103.749 7.47769 102.641 9.22898 102.539 12.4766H107.255C107.461 9.02236 106.429 7.47769 105.115 7.47769ZM116.968 7.7343V6.72868H109.753V7.73347H112.769V19.7143H113.979V7.7343H116.968Z" fill="#333333"></path>
</svg>