<svg xmlns="http://www.w3.org/2000/svg" version="1.1" xmlns:xlink="http://www.w3.org/1999/xlink" width="192.91" height="247.82"><svg id="SvgjsSvg1004" data-name="Слой 1" xmlns="http://www.w3.org/2000/svg" viewBox="0 0 192.91 247.82">
  <g>
    <circle cx="121.59" cy="51.13" r="4.19" style="fill: #1c1c1c;"></circle>
    <path d="m178.29,117.28c0-19.14-15.52-34.66-34.66-34.66h-2.97c-.2-.05-.4-.1-.58-.12-1.8-1.34-3.83-2.62-5.56-3.34v-9.65c.22,0,.45,0,.7,0,5.34,0,8.61-1.08,9.98-3.32,1.48-2.41.16-5.03-.41-6.16,0,0,0-.02-.01-.03l-8.08-20.17,10.85.11c2.64.03,4.93-2.02,5-4.66.08-2.69-2.07-4.91-4.75-4.94l-7.05-.07C140.19,7,127.1.17,111.02.14c-15.96-.02-28.99,6.67-29.8,29.54l-7.62-.08c-2.64-.03-4.93,2.02-5,4.66-.08,2.69,2.07,4.91,4.75,4.94l10.76.11v36.88c-2.34.04-6.52,2.75-9.43,5.15h-32.27c0-.4-.3-19.38-.85-19.92-1.23-1.22-5.86-1.23-9.51.5-4.66,2.22-9.91,7.86-8.54,22.16-1.23.02-2.97.02-4.61-.03-10.08-.35-17.03,5.34-18.59,15.22-1.5,9.54,2.84,21.45,11.69,23.98,3.44.98,12.05,1.38,19.59,1.38,2.92,0,36.06-.09,36.06-.09l.08,105.21h7.94l-17.2,6.32c-2.53.93-4.22,3.33-4.25,6.03l-.05,5.25,51.92.48.17-67.52,5.18-.02.17,67.54,51.92-.48-.05-5.25c-.02-2.7-1.72-5.1-4.25-6.03l-17.2-6.32h7.94v-34.01c.77.32,1.6.49,2.44.49.75,0,1.5-.13,2.21-.42,2.53-.99,4.1-3.34,4.11-6.13,0-2.68,0-5.36,0-8.04v-.82c2.48.7,4.8.23,6.77-1.37,2.65.94,4.83.16,6.73-1.91.08,0,.16.01.24.02.05,0,.45.04.86.08.85.08,1.72-.03,2.5-.37,1.75-.76,2.31-2.22,2.31-3.95v-16.59h.03s0-.01,0-.02l.15-39.42ZM12.17,88.39c3.6-.42,7.08,1.4,6.51,5.71-.14,1.02-1.06,1.5-2.26,1.44-1.74-.09-3.49-.02-5.24-.02-1.85,0-3.71,0-5.56,0-.27,0-.61.2-.58-.37,1.21-2.61,3.35-5.35,7.13-6.75Zm4.68,31.89c-.74.14-1.53.14-2.34.05-.62-.1-1.16-.22-1.59-.34-2.7-.77-5.03-2.92-6.71-5.82,3.27,0,9.44.05,10.13-.01,1.2-.11,1.99.41,2.39,1.43.4,1.03.13,4.32-1.88,4.69Zm.12-9.27c-4,0-8.01-.02-12.01.02-.08,0-.15,0-.22,0-.5-1.36-.87-2.81-1.09-4.3.45-.16,1.17-.19,2.27-.19h4.69c2.11,0,4.22,0,6.33,0,1.33,0,2,.85,1.98,2.45-.01,1.45-.57,2.03-1.95,2.03Zm1.35-7.95c-.32.36-12.08.3-14.3.33-.3,0-.5-.03-.64-.13,0-1.15.08-2.31.27-3.46.03-.21.07-.44.12-.69.52-.43,1.49-.43,3.38-.43,3.13,0,6.26.04,9.39-.02,1.19-.02,1.88.57,2.22,1.51.36.99.33,2-.44,2.88Zm21.19,18.01c-5.08.25-13.35.24-19.55-.17,2.32-2.29.36-7.5.39-8.24.03-.79.99-1.49,1.22-2.42.41-1.67.2-3.24-.85-4.64-.35-.46-.4-.75-.03-1.27,1.55-2.17,1.45-4.53-.19-6.69-.24-.31-.49-.51-.15-.98,1.68-2.33,1.07-6.62-1.31-9.22,2.99.09,6.11,0,6.24,0l1.54-.05.1-1.54c0-.11.07-1.13,0-1.87-.86-8.59.78-14.76,4.74-17.84,2.68-2.09,5.85-2.31,7.28-2.16.25,2.32.5,9.56.54,21.77,0,.73.02,1.44.05,2.15v33.17Zm47.99-81.72l45.54.46,8.72,21.76c.34.67,1.05,2.06.55,2.86-.25.4-1.48,1.7-7.09,1.7-.63,0-1.47.07-2.24.15-1.19.12-2.03,1.22-1.85,2.4,0,.02,0,.03,0,.05v2.84c-2.49-2.35-6.52-2.43-9.28-1.92-1.65.31-3.21.5-5.01-.23-2.12-.86-2.99-2.97-3.12-4.84-.02-.4-.5.19-.54.23-.29.36-.59.71-.84,1.1-.62.96-.84,2.14-.76,3.37.13,2,1.24,4.46,2.81,6.11,2.69,2.81,8.37,5.51,12.76,5.72.95.05,1.88-.13,2.72-.51-1.75,5.92-3.69,11.69-5.71,17.18l-.81,2.09-.03-8.33c0-2.15-1.96-3.51-3.65-2.54l-9.43,5.39c-.76.44-1.21,1.19-1.38,2.01-.17-.82-.62-1.58-1.38-2.01l-9.43-5.39c-1.69-.97-3.65.39-3.65,2.54l-.04,9.48c-2.41-6.06-4.77-12.56-6.89-19.33v-42.36Zm-8.93,66.77c.73-.68,2.25-1.8,3.32-2.59,4.06-3,6-4.53,5.72-6.37-.14-.93-.16-1.05-7.58-6.45-1.99-1.45-4.59-3.34-5.73-4.26,1.25-1.81,6.64-5.76,9.07-6.68,6.98,23.43,17.14,44.03,22.8,54.82-9.13-8.61-24.97-24.56-27.58-28.46Zm30.42,26.57c-2.84-5.44-6.78-13.28-10.86-22.66-.43-.98-.83-1.97-1.18-2.98-.14-.4-.39-1.02-.68-1.71.59.21,1.25.18,1.87-.18l9.47-5.48c.69-.4,1.12-1.08,1.28-1.83.17.75.59,1.43,1.28,1.83l9.47,5.48c.53.31,1.09.35,1.62.23l-.65,1.69c-4.19,10.36-8.4,19.27-11.62,25.6Zm27.33-39.59c-7.42,5.4-7.44,5.52-7.58,6.45-.28,1.85,1.65,3.37,5.72,6.37,1.06.79,2.56,1.89,3.3,2.57-2.55,3.51-16.68,17.02-24.48,24.49-.43.41-.86.82-1.27,1.22,2.27-4.48,4.22-8.6,4.26-8.68,4.79-10.18,11.53-25.89,16.73-43.36,2.43.92,7.82,4.87,9.07,6.68-1.14.93-3.74,2.81-5.73,4.26Zm38.68,79.26v.89c0,.99-.8,1.79-1.79,1.79-1.34,0-1.67-1.43-1.71-1.5-.53-1.17-1.87-.73-1.94.16-.01.12.07,2.24-.23,2.72-.02.03-.04.06-.06.09-.07.08-.14.16-.22.24,0,0,0,0-.01.01-.37.33-.89.54-1.46.53-.33,0-.79,0-1.21-.29-.26-.15-.74-.86-.81-1-.64-1.13-.6-2.03-1.73-1.92-.89.08-1.02,1.06-.98,1.42.02.15.08,1.18.08,1.34,0,.48-.21.9-.55,1.22-.08.09-.18.17-.32.25-.32.2-.71.31-1.13.31-.02,0-.46.01-.67-.01-.85-.11-2.23-.88-2.14-3,.08-1.89-2.76-1.89-2.85-.55-.08,1.3.05,6.61.05,6.61,0,2.68,0,5.35,0,8.03,0,1.38-.73,2.5-1.96,2.98-1.21.47-2.61.01-3.41-1.06v-34.88h24.79s0,.01,0,.02h.25v15.62Z" style="fill: #1c1c1c;"></path>
  </g>
  <g>
    <g>
      <path d="m177.73,14.75l1.08-.32,4.75,8.01h-1.3l-4.53-7.7Zm-.06-.6c2.85,0,4.43-1.14,4.43-3.48s-1.58-3.29-4.43-3.29h-3.17v6.78h3.17Zm-4.28-7.73h4.59c3.17,0,5.26,1.17,5.26,4.24,0,2.91-2.09,4.43-5.26,4.43h-3.48v7.35h-1.11V6.42Z"></path>
      <path d="m183.81,22.58h-1.63l-.04-.07-4.28-7.28h-3.21v7.35h-1.39V6.27h4.73c3.58,0,5.4,1.48,5.4,4.39,0,2.44-1.47,4.05-4,4.47l4.42,7.46Zm-1.47-.28h.97l-4.23-7.13c-.29.04-.59.06-.9.06l4.16,7.07Zm-8.81,0h.83v-7.35h3.33l-.17-.29,1.36-.4.36.6c2.48-.36,3.87-1.85,3.87-4.21,0-2.72-1.72-4.1-5.12-4.1h-4.45v15.74Zm4.41-7.47l.07.12c.32,0,.62-.02.91-.05l-.18-.31-.8.23Zm-.28-.54h-3.31v-7.06h3.31c3.16,0,4.57,1.06,4.57,3.44s-1.58,3.62-4.57,3.62Zm-3.03-.28h3.03c2.85,0,4.29-1.12,4.29-3.34s-1.28-3.15-4.29-3.15h-3.03v6.49Z" style="fill: #1c1c1c;"></path>
    </g>
    <g>
      <path d="m178.48,28.72c-7.88,0-14.29-6.41-14.29-14.29S170.6.14,178.48.14s14.29,6.41,14.29,14.29-6.41,14.29-14.29,14.29Zm0-27.36c-7.21,0-13.08,5.87-13.08,13.08s5.87,13.07,13.08,13.07,13.07-5.86,13.07-13.07-5.86-13.08-13.07-13.08Z" style="fill: #202020;"></path>
      <path d="m178.48,28.86c-7.96,0-14.43-6.47-14.43-14.43s6.47-14.43,14.43-14.43,14.43,6.47,14.43,14.43-6.47,14.43-14.43,14.43Zm0-28.57c-7.8,0-14.15,6.35-14.15,14.15s6.35,14.14,14.15,14.14,14.14-6.35,14.14-14.14S186.28.28,178.48.28Zm0,27.36c-7.29,0-13.22-5.93-13.22-13.22s5.93-13.22,13.22-13.22,13.22,5.93,13.22,13.22-5.93,13.22-13.22,13.22Zm0-26.15c-7.13,0-12.93,5.8-12.93,12.93s5.8,12.93,12.93,12.93,12.93-5.8,12.93-12.93-5.8-12.93-12.93-12.93Z" style="fill: #1c1c1c;"></path>
    </g>
  </g>
</svg><style>@media (prefers-color-scheme: light) { :root { filter: none; } }
@media (prefers-color-scheme: dark) { :root { filter: none; } }
</style></svg>